<svg xmlns="http://www.w3.org/2000/svg" viewBox="0 0 390 534" width="390" height="534"><path d="M300 2h2v2h-2zM74 4h2v2h-2zM342 4h2v2h-2zM40 6h2v2h-2zM72 6h2v2h-2zM304 6h2v2h-2zM306 8h2v2h-2zM342 8h2v2h-2zM304 10h2v2h-2zM320 10h2v2h-2zM324 10h2v2h-2zM340 10h2v2h-2zM58 12h2v2h-2zM306 12h2v6h-2zM318 12h2v14h-2zM322 12h2v2h-2zM326 12h2v14h-2zM330 12h2v14h-2zM44 14h2v2h-2zM56 14h2v2h-2zM68 14h4v2h-4zM316 14h2v2h-2zM320 14h2v2h-2zM324 14h2v2h-2zM328 14h2v2h-2zM340 14h2v2h-2zM54 16h2v6h-2zM58 16h2v26h-2zM70 16h2v4h-2zM314 16h2v10h-2zM322 16h2v2h-2zM334 16h2v2h-2zM52 18h2v2h-2zM56 18h2v2h-2zM60 18h4v2h-4zM68 18h2v2h-2zM312 18h2v2h-2zM316 18h2v2h-2zM320 18h2v2h-2zM324 18h2v2h-2zM328 18h2v2h-2zM332 18h2v2h-2zM340 18h2v2h-2zM50 20h2v6h-2zM62 20h2v6h-2zM322 20h2v6h-2zM334 20h2v4h-2zM48 22h2v2h-2zM52 22h2v2h-2zM56 22h2v2h-2zM60 22h2v2h-2zM64 22h2v6h-2zM312 22h2v2h-2zM316 22h2v2h-2zM320 22h2v2h-2zM324 22h2v2h-2zM328 22h2v2h-2zM332 22h2v2h-2zM336 22h2v2h-2zM340 22h2v2h-2zM54 24h2v2h-2zM52 26h2v2h-2zM56 26h2v2h-2zM60 26h2v2h-2zM308 26h2v2h-2zM312 26h2v2h-2zM316 26h2v2h-2zM320 26h2v2h-2zM324 26h2v2h-2zM328 26h2v2h-2zM332 26h2v2h-2zM336 26h2v2h-2zM50 28h2v12h-2zM62 28h2v14h-2zM66 28h2v4h-2zM218 28h2v2h-2zM310 28h2v2h-2zM314 28h2v14h-2zM318 28h2v26h-2zM322 28h2v26h-2zM326 28h2v44h-2zM330 28h2v26h-2zM334 28h2v2h-2zM338 28h2v2h-2zM48 30h2v2h-2zM52 30h2v2h-2zM56 30h2v2h-2zM60 30h2v10h-2zM64 30h2v2h-2zM168 30h2v2h-2zM216 30h2v2h-2zM272 30h2v2h-2zM276 30h2v2h-2zM280 30h2v2h-2zM284 30h2v2h-2zM288 30h2v2h-2zM292 30h2v2h-2zM308 30h2v2h-2zM312 30h2v2h-2zM316 30h2v2h-2zM320 30h2v2h-2zM324 30h2v2h-2zM328 30h2v2h-2zM332 30h2v2h-2zM336 30h2v2h-2zM352 30h2v2h-2zM360 30h2v2h-2zM364 30h2v2h-2zM10 32h2v2h-2zM14 32h2v2h-2zM18 32h2v2h-2zM22 32h2v2h-2zM54 32h2v10h-2zM90 32h2v2h-2zM94 32h2v2h-2zM98 32h2v2h-2zM102 32h2v2h-2zM198 32h2v2h-2zM270 32h2v2h-2zM286 32h2v2h-2zM290 32h2v2h-2zM294 32h2v2h-2zM298 32h2v2h-2zM302 32h2v2h-2zM306 32h2v2h-2zM310 32h2v2h-2zM334 32h2v6h-2zM338 32h2v2h-2zM342 32h2v2h-2zM346 32h2v2h-2zM350 32h2v2h-2zM354 32h2v2h-2zM358 32h2v2h-2zM362 32h2v2h-2zM4 34h2v2h-2zM8 34h2v2h-2zM12 34h2v2h-2zM16 34h2v2h-2zM20 34h2v2h-2zM24 34h2v2h-2zM28 34h2v2h-2zM32 34h2v2h-2zM36 34h2v2h-2zM48 34h2v2h-2zM52 34h2v2h-2zM56 34h2v2h-2zM64 34h2v2h-2zM68 34h2v2h-2zM72 34h2v2h-2zM76 34h2v2h-2zM80 34h2v2h-2zM84 34h2v2h-2zM88 34h2v2h-2zM92 34h2v2h-2zM96 34h2v2h-2zM100 34h2v2h-2zM104 34h2v2h-2zM108 34h2v2h-2zM196 34h2v2h-2zM268 34h2v2h-2zM272 34h2v2h-2zM276 34h2v2h-2zM280 34h2v2h-2zM284 34h2v2h-2zM288 34h2v2h-2zM292 34h2v2h-2zM296 34h2v2h-2zM300 34h2v2h-2zM304 34h2v2h-2zM308 34h2v2h-2zM312 34h2v2h-2zM316 34h2v2h-2zM320 34h2v2h-2zM324 34h2v2h-2zM328 34h2v2h-2zM332 34h2v2h-2zM336 34h2v2h-2zM340 34h2v2h-2zM344 34h2v2h-2zM348 34h2v2h-2zM352 34h2v2h-2zM356 34h2v2h-2zM360 34h2v2h-2zM364 34h2v2h-2zM368 34h2v2h-2zM372 34h2v2h-2zM376 34h2v2h-2zM34 36h2v2h-2zM38 36h2v2h-2zM42 36h2v2h-2zM46 36h2v2h-2zM66 36h2v2h-2zM70 36h2v2h-2zM74 36h2v2h-2zM86 36h2v2h-2zM194 36h2v2h-2zM290 36h2v2h-2zM342 36h2v2h-2zM358 36h2v2h-2zM4 38h2v2h-2zM8 38h2v2h-2zM12 38h2v2h-2zM16 38h2v2h-2zM20 38h2v2h-2zM24 38h2v2h-2zM28 38h2v2h-2zM32 38h2v2h-2zM36 38h2v2h-2zM40 38h2v2h-2zM44 38h2v2h-2zM48 38h2v2h-2zM52 38h2v2h-2zM56 38h2v2h-2zM64 38h2v2h-2zM68 38h2v2h-2zM72 38h2v2h-2zM76 38h2v2h-2zM80 38h2v2h-2zM84 38h2v2h-2zM88 38h2v2h-2zM92 38h2v2h-2zM96 38h2v2h-2zM100 38h2v2h-2zM104 38h2v2h-2zM108 38h2v2h-2zM192 38h2v2h-2zM212 38h2v2h-2zM268 38h2v2h-2zM272 38h2v2h-2zM276 38h2v2h-2zM280 38h2v2h-2zM284 38h2v2h-2zM288 38h2v2h-2zM292 38h2v2h-2zM296 38h2v2h-2zM300 38h2v2h-2zM304 38h2v2h-2zM308 38h2v2h-2zM312 38h2v2h-2zM316 38h2v2h-2zM320 38h2v2h-2zM324 38h2v2h-2zM328 38h2v2h-2zM332 38h2v2h-2zM336 38h2v2h-2zM340 38h2v2h-2zM344 38h2v2h-2zM348 38h2v2h-2zM352 38h2v2h-2zM356 38h2v2h-2zM360 38h2v2h-2zM364 38h2v2h-2zM368 38h2v2h-2zM372 38h2v2h-2zM380 38h2v2h-2zM26 40h2v2h-2zM66 40h2v2h-2zM78 40h2v2h-2zM82 40h2v2h-2zM174 40h2v6h-2zM190 40h2v10h-2zM194 40h2v50h-2zM198 40h2v10h-2zM310 40h2v2h-2zM334 40h2v2h-2zM338 40h2v2h-2zM4 42h2v2h-2zM8 42h2v2h-2zM12 42h2v2h-2zM16 42h2v2h-2zM20 42h2v2h-2zM24 42h2v2h-2zM28 42h2v2h-2zM32 42h2v2h-2zM36 42h2v2h-2zM40 42h2v2h-2zM44 42h2v2h-2zM48 42h2v2h-2zM52 42h2v2h-2zM56 42h2v2h-2zM60 42h2v6h-2zM64 42h2v2h-2zM68 42h2v2h-2zM72 42h2v2h-2zM76 42h2v2h-2zM80 42h2v2h-2zM84 42h2v2h-2zM88 42h2v2h-2zM92 42h2v2h-2zM96 42h2v2h-2zM100 42h2v2h-2zM104 42h2v2h-2zM184 42h6v2h-6zM192 42h2v2h-2zM196 42h2v2h-2zM200 42h2v2h-2zM212 42h2v2h-2zM272 42h2v2h-2zM276 42h2v2h-2zM280 42h2v2h-2zM284 42h2v2h-2zM288 42h2v2h-2zM292 42h2v2h-2zM296 42h2v2h-2zM300 42h2v2h-2zM304 42h2v2h-2zM308 42h2v2h-2zM312 42h2v2h-2zM316 42h2v2h-2zM320 42h2v2h-2zM324 42h2v2h-2zM328 42h2v2h-2zM332 42h2v2h-2zM336 42h2v2h-2zM340 42h2v2h-2zM344 42h2v2h-2zM348 42h2v2h-2zM352 42h2v2h-2zM356 42h2v2h-2zM360 42h2v2h-2zM364 42h2v2h-2zM368 42h2v2h-2zM372 42h2v2h-2zM376 42h2v2h-2zM50 44h2v2h-2zM54 44h2v10h-2zM58 44h2v24h-2zM62 44h2v22h-2zM182 44h2v6h-2zM186 44h2v6h-2zM202 44h2v6h-2zM210 44h2v2h-2zM16 46h2v2h-2zM20 46h2v2h-2zM24 46h2v2h-2zM28 46h2v2h-2zM32 46h2v2h-2zM36 46h6v2h-6zM48 46h2v2h-2zM52 46h2v2h-2zM56 46h2v2h-2zM64 46h2v2h-2zM76 46h2v2h-2zM80 46h2v2h-2zM84 46h2v2h-2zM88 46h2v2h-2zM92 46h2v2h-2zM180 46h2v2h-2zM184 46h2v2h-2zM188 46h2v2h-2zM192 46h2v2h-2zM196 46h2v2h-2zM200 46h2v2h-2zM204 46h2v2h-2zM284 46h2v2h-2zM288 46h2v2h-2zM292 46h2v2h-2zM296 46h2v2h-2zM300 46h2v2h-2zM312 46h2v2h-2zM316 46h2v2h-2zM320 46h2v2h-2zM324 46h2v2h-2zM328 46h2v2h-2zM332 46h2v2h-2zM336 46h2v2h-2zM344 46h2v2h-2zM348 46h2v2h-2zM352 46h2v2h-2zM356 46h2v2h-2zM360 46h2v2h-2zM364 46h2v2h-2zM50 48h2v6h-2zM66 48h2v2h-2zM206 48h2v2h-2zM210 48h2v2h-2zM314 48h2v2h-2zM334 48h2v2h-2zM32 50h2v2h-2zM48 50h2v2h-2zM52 50h2v2h-2zM56 50h2v2h-2zM60 50h2v2h-2zM64 50h2v2h-2zM180 50h2v2h-2zM184 50h2v2h-2zM188 50h2v2h-2zM192 50h2v2h-2zM196 50h2v2h-2zM200 50h2v2h-2zM204 50h2v2h-2zM296 50h2v2h-2zM312 50h2v2h-2zM316 50h2v2h-2zM320 50h2v2h-2zM324 50h2v2h-2zM328 50h2v2h-2zM332 50h2v2h-2zM30 52h2v2h-2zM46 52h2v6h-2zM186 52h2v10h-2zM190 52h2v22h-2zM198 52h2v30h-2zM210 52h2v2h-2zM334 52h2v2h-2zM24 54h2v2h-2zM28 54h2v2h-2zM48 54h2v2h-2zM52 54h2v2h-2zM56 54h2v2h-2zM60 54h2v2h-2zM64 54h2v2h-2zM68 54h2v2h-2zM88 54h2v2h-2zM176 54h2v2h-2zM184 54h2v2h-2zM188 54h2v2h-2zM192 54h2v2h-2zM196 54h2v2h-2zM200 54h2v2h-2zM208 54h2v2h-2zM312 54h2v2h-2zM316 54h2v2h-2zM320 54h2v2h-2zM324 54h2v2h-2zM328 54h2v2h-2zM332 54h2v2h-2zM336 54h2v2h-2zM356 54h2v2h-2zM50 56h2v6h-2zM54 56h2v12h-2zM182 56h2v2h-2zM202 56h2v18h-2zM206 56h2v2h-2zM286 56h2v2h-2zM310 56h2v2h-2zM322 56h2v14h-2zM330 56h2v12h-2zM334 56h2v6h-2zM338 56h2v4h-2zM362 56h2v2h-2zM48 58h2v2h-2zM52 58h2v2h-2zM56 58h2v2h-2zM60 58h2v2h-2zM64 58h2v2h-2zM68 58h2v2h-2zM180 58h2v2h-2zM184 58h2v2h-2zM188 58h2v2h-2zM192 58h2v2h-2zM196 58h2v2h-2zM200 58h2v2h-2zM204 58h2v2h-2zM284 58h2v2h-2zM308 58h2v2h-2zM312 58h2v2h-2zM316 58h2v2h-2zM320 58h2v2h-2zM324 58h2v2h-2zM328 58h2v2h-2zM332 58h2v2h-2zM336 58h2v2h-2zM46 60h2v2h-2zM70 60h2v2h-2zM182 60h2v10h-2zM314 60h2v4h-2zM318 60h2v8h-2zM52 62h2v2h-2zM56 62h2v6h-2zM60 62h2v6h-2zM68 62h2v2h-2zM128 62h2v2h-2zM132 62h2v2h-2zM136 62h2v2h-2zM140 62h2v2h-2zM180 62h2v2h-2zM184 62h2v2h-2zM188 62h2v2h-2zM192 62h2v2h-2zM196 62h2v6h-2zM200 62h2v2h-2zM204 62h2v2h-2zM240 62h2v2h-2zM244 62h2v2h-2zM248 62h6v2h-6zM256 62h2v2h-2zM316 62h2v2h-2zM320 62h2v2h-2zM324 62h2v2h-2zM328 62h2v2h-2zM332 62h2v2h-2zM340 62h2v2h-2zM46 64h2v2h-2zM138 64h2v2h-2zM142 64h2v2h-2zM174 64h2v2h-2zM186 64h2v10h-2zM206 64h2v6h-2zM242 64h2v2h-2zM246 64h2v2h-2zM306 64h2v8h-2zM342 64h2v2h-2zM52 66h2v2h-2zM120 66h2v2h-2zM124 66h2v2h-2zM128 66h2v2h-2zM132 66h2v2h-2zM136 66h2v2h-2zM140 66h2v2h-2zM144 66h2v2h-2zM148 66h2v2h-2zM152 66h2v2h-2zM156 66h2v2h-2zM160 66h2v2h-2zM164 66h2v2h-2zM168 66h2v2h-2zM172 66h2v2h-2zM176 66h6v2h-6zM184 66h2v2h-2zM188 66h2v2h-2zM192 66h2v2h-2zM200 66h2v2h-2zM204 66h2v2h-2zM208 66h2v2h-2zM212 66h2v2h-2zM216 66h2v2h-2zM220 66h2v2h-2zM224 66h2v2h-2zM228 66h2v2h-2zM232 66h2v2h-2zM236 66h2v2h-2zM240 66h2v2h-2zM244 66h2v2h-2zM248 66h2v2h-2zM252 66h2v2h-2zM256 66h2v2h-2zM260 66h2v2h-2zM264 66h2v2h-2zM308 66h2v2h-2zM316 66h2v2h-2zM320 66h2v2h-2zM324 66h2v2h-2zM328 66h2v2h-2zM332 66h2v2h-2zM340 66h2v2h-2zM46 68h2v2h-2zM178 68h2v2h-2zM342 68h2v2h-2zM44 70h2v2h-2zM116 70h2v2h-2zM120 70h2v2h-2zM124 70h2v2h-2zM128 70h2v2h-2zM132 70h2v2h-2zM136 70h2v2h-2zM140 70h2v2h-2zM144 70h2v2h-2zM148 70h2v2h-2zM152 70h2v2h-2zM160 70h2v2h-2zM164 70h2v2h-2zM168 70h2v2h-2zM172 70h2v2h-2zM176 70h2v2h-2zM180 70h2v2h-2zM184 70h2v2h-2zM188 70h2v2h-2zM192 70h2v2h-2zM196 70h2v2h-2zM200 70h2v2h-2zM204 70h2v2h-2zM208 70h2v2h-2zM212 70h2v2h-2zM216 70h2v2h-2zM220 70h2v2h-2zM224 70h2v2h-2zM228 70h2v2h-2zM232 70h2v2h-2zM236 70h2v2h-2zM240 70h2v2h-2zM244 70h2v2h-2zM248 70h2v2h-2zM252 70h2v2h-2zM256 70h2v2h-2zM260 70h2v2h-2zM264 70h2v2h-2zM268 70h2v2h-2zM308 70h2v2h-2zM324 70h2v2h-2zM340 70h2v2h-2zM310 72h2v2h-2zM342 72h2v2h-2zM120 74h2v2h-2zM124 74h2v2h-2zM128 74h2v2h-2zM132 74h2v2h-2zM136 74h2v2h-2zM140 74h2v2h-2zM144 74h2v2h-2zM148 74h2v2h-2zM152 74h2v2h-2zM160 74h2v2h-2zM164 74h2v2h-2zM168 74h2v2h-2zM172 74h2v2h-2zM176 74h2v2h-2zM180 74h2v2h-2zM184 74h2v2h-2zM188 74h2v2h-2zM192 74h2v2h-2zM196 74h2v2h-2zM200 74h2v2h-2zM204 74h2v2h-2zM208 74h2v2h-2zM224 74h2v2h-2zM228 74h2v2h-2zM232 74h2v2h-2zM236 74h2v2h-2zM240 74h2v2h-2zM244 74h2v2h-2zM248 74h2v2h-2zM252 74h2v2h-2zM256 74h2v2h-2zM260 74h2v2h-2zM264 74h2v2h-2zM268 74h2v2h-2zM308 74h2v2h-2zM340 74h2v2h-2zM174 76h2v2h-2zM182 76h2v6h-2zM186 76h2v6h-2zM190 76h2v6h-2zM202 76h2v10h-2zM310 76h2v2h-2zM124 78h2v2h-2zM128 78h2v2h-2zM132 78h2v2h-2zM136 78h2v2h-2zM140 78h2v2h-2zM144 78h2v2h-2zM148 78h2v2h-2zM152 78h2v2h-2zM156 78h2v2h-2zM160 78h2v2h-2zM164 78h2v2h-2zM168 78h2v2h-2zM172 78h2v2h-2zM180 78h2v2h-2zM184 78h2v2h-2zM188 78h2v2h-2zM192 78h2v2h-2zM196 78h2v2h-2zM200 78h2v2h-2zM204 78h2v2h-2zM212 78h2v2h-2zM216 78h2v2h-2zM228 78h2v2h-2zM232 78h2v2h-2zM236 78h2v2h-2zM240 78h2v2h-2zM244 78h2v2h-2zM248 78h2v2h-2zM252 78h2v2h-2zM256 78h2v2h-2zM260 78h2v2h-2zM308 78h2v2h-2zM170 80h2v2h-2zM206 80h2v26h-2zM310 80h2v2h-2zM136 82h2v2h-2zM140 82h2v2h-2zM144 82h2v2h-2zM148 82h2v2h-2zM152 82h2v2h-2zM156 82h2v2h-2zM160 82h2v2h-2zM164 82h2v2h-2zM168 82h2v2h-2zM180 82h2v2h-2zM184 82h2v2h-2zM188 82h2v2h-2zM192 82h2v2h-2zM196 82h2v2h-2zM200 82h2v2h-2zM204 82h2v2h-2zM220 82h2v2h-2zM224 82h2v2h-2zM236 82h2v2h-2zM240 82h2v2h-2zM244 82h2v2h-2zM248 82h2v2h-2zM308 82h2v2h-2zM166 84h2v2h-2zM178 84h2v6h-2zM182 84h2v2h-2zM186 84h2v6h-2zM190 84h2v6h-2zM198 84h2v32h-2zM210 84h2v2h-2zM164 86h2v2h-2zM176 86h2v2h-2zM180 86h2v2h-2zM184 86h2v2h-2zM188 86h2v2h-2zM192 86h2v2h-2zM196 86h2v2h-2zM200 86h2v2h-2zM204 86h2v2h-2zM208 86h2v2h-2zM224 86h2v2h-2zM158 88h2v2h-2zM182 88h2v2h-2zM202 88h2v2h-2zM306 88h2v2h-2zM156 90h2v2h-2zM176 90h2v2h-2zM180 90h2v2h-2zM184 90h2v2h-2zM188 90h2v2h-2zM192 90h2v2h-2zM196 90h2v2h-2zM200 90h2v2h-2zM204 90h2v2h-2zM208 90h2v2h-2zM228 90h2v2h-2zM304 90h2v2h-2zM344 90h2v2h-2zM178 92h2v2h-2zM182 92h2v20h-2zM186 92h2v22h-2zM190 92h2v24h-2zM194 92h2v24h-2zM202 92h2v22h-2zM302 92h2v2h-2zM180 94h2v2h-2zM184 94h2v2h-2zM188 94h2v2h-2zM192 94h2v2h-2zM196 94h2v2h-2zM200 94h2v2h-2zM204 94h2v2h-2zM208 94h2v2h-2zM212 94h2v2h-2zM300 94h2v2h-2zM348 94h2v2h-2zM174 96h2v2h-2zM180 98h2v2h-2zM184 98h2v2h-2zM188 98h2v2h-2zM192 98h2v2h-2zM196 98h2v2h-2zM200 98h2v2h-2zM204 98h2v2h-2zM212 98h2v2h-2zM98 100h2v6h-2zM174 100h2v2h-2zM44 102h4v2h-4zM172 102h2v2h-2zM180 102h2v2h-2zM184 102h2v2h-2zM188 102h2v2h-2zM192 102h2v2h-2zM196 102h2v2h-2zM200 102h2v2h-2zM204 102h2v2h-2zM212 102h2v2h-2zM46 104h2v4h-2zM174 104h2v2h-2zM214 104h2v2h-2zM290 104h2v4h-2zM342 104h2v2h-2zM96 106h2v2h-2zM172 106h2v2h-2zM180 106h2v2h-2zM184 106h2v2h-2zM188 106h2v2h-2zM192 106h2v2h-2zM196 106h2v2h-2zM200 106h2v2h-2zM204 106h2v2h-2zM212 106h2v2h-2zM340 106h2v2h-2zM70 108h2v38h-2zM74 108h2v46h-2zM94 108h2v2h-2zM338 108h2v4h-2zM48 110h4v2h-4zM68 110h2v2h-2zM72 110h2v2h-2zM92 110h2v2h-2zM184 110h2v2h-2zM188 110h2v2h-2zM192 110h2v2h-2zM196 110h2v2h-2zM200 110h2v2h-2zM336 110h2v2h-2zM66 112h2v14h-2zM76 112h4v12h-4zM298 112h2v4h-2zM318 112h2v6h-2zM334 112h2v10h-2zM64 114h2v2h-2zM68 114h2v2h-2zM72 114h2v2h-2zM80 114h2v10h-2zM188 114h2v2h-2zM192 114h2v2h-2zM196 114h2v2h-2zM200 114h2v2h-2zM312 114h6v2h-6zM62 116h2v10h-2zM82 116h2v8h-2zM90 116h2v2h-2zM166 116h2v2h-2zM310 116h2v2h-2zM314 116h2v2h-2zM322 116h2v68h-2zM52 118h2v2h-2zM60 118h2v6h-2zM64 118h2v2h-2zM68 118h2v6h-2zM72 118h2v2h-2zM164 118h2v2h-2zM308 118h2v2h-2zM312 118h2v2h-2zM316 118h2v2h-2zM320 118h2v2h-2zM324 118h4v2h-4zM332 118h2v2h-2zM54 120h2v8h-2zM90 120h2v6h-2zM306 120h2v10h-2zM310 120h2v6h-2zM314 120h2v6h-2zM318 120h2v68h-2zM326 120h2v26h-2zM52 122h2v2h-2zM64 122h2v2h-2zM72 122h2v2h-2zM88 122h2v2h-2zM300 122h2v2h-2zM304 122h2v2h-2zM308 122h2v2h-2zM312 122h2v2h-2zM316 122h2v2h-2zM320 122h2v2h-2zM324 122h2v2h-2zM332 122h2v2h-2zM78 124h2v2h-2zM302 124h2v4h-2zM330 124h2v4h-2zM64 126h2v2h-2zM68 126h2v2h-2zM72 126h2v2h-2zM76 126h2v2h-2zM80 126h2v2h-2zM88 126h2v2h-2zM304 126h2v2h-2zM308 126h2v2h-2zM312 126h2v2h-2zM316 126h2v2h-2zM320 126h2v2h-2zM324 126h2v2h-2zM328 126h2v2h-2zM58 128h2v4h-2zM62 128h2v2h-2zM66 128h2v26h-2zM78 128h2v22h-2zM82 128h2v14h-2zM86 128h2v4h-2zM314 128h2v2h-2zM56 130h2v2h-2zM60 130h2v2h-2zM64 130h2v2h-2zM68 130h2v2h-2zM72 130h2v2h-2zM76 130h2v2h-2zM80 130h2v2h-2zM84 130h2v2h-2zM304 130h2v2h-2zM308 130h2v2h-2zM312 130h2v2h-2zM316 130h2v2h-2zM320 130h2v2h-2zM324 130h2v2h-2zM328 130h2v2h-2zM62 132h2v2h-2zM306 132h2v2h-2zM314 132h2v2h-2zM60 134h2v2h-2zM64 134h2v2h-2zM68 134h2v2h-2zM72 134h2v2h-2zM76 134h2v2h-2zM80 134h2v2h-2zM120 134h2v2h-2zM124 134h2v2h-2zM268 134h4v2h-4zM304 134h2v2h-2zM308 134h2v2h-2zM312 134h2v2h-2zM316 134h2v2h-2zM320 134h2v2h-2zM324 134h2v2h-2zM328 134h2v2h-2zM10 136h2v2h-2zM14 136h2v2h-2zM18 136h2v16h-2zM22 136h2v12h-2zM26 136h2v14h-2zM30 136h2v2h-2zM34 136h2v2h-2zM38 136h2v2h-2zM42 136h2v2h-2zM46 136h2v2h-2zM50 136h2v2h-2zM54 136h2v2h-2zM62 136h2v2h-2zM90 136h2v2h-2zM94 136h2v2h-2zM98 136h2v4h-2zM102 136h2v2h-2zM106 136h2v2h-2zM110 136h2v2h-2zM114 136h2v2h-2zM118 136h2v14h-2zM122 136h2v12h-2zM126 136h2v10h-2zM130 136h2v2h-2zM134 136h2v2h-2zM254 136h2v2h-2zM258 136h2v2h-2zM262 136h2v2h-2zM266 136h2v2h-2zM270 136h2v2h-2zM274 136h2v2h-2zM278 136h2v6h-2zM282 136h2v2h-2zM286 136h2v6h-2zM290 136h2v6h-2zM294 136h2v2h-2zM298 136h2v2h-2zM302 136h2v6h-2zM306 136h2v2h-2zM310 136h2v2h-2zM314 136h2v2h-2zM330 136h2v6h-2zM334 136h2v2h-2zM338 136h2v6h-2zM342 136h2v2h-2zM346 136h2v6h-2zM350 136h2v2h-2zM354 136h2v2h-2zM358 136h2v2h-2zM362 136h2v2h-2zM366 136h2v2h-2zM370 136h2v2h-2zM374 136h2v2h-2zM4 138h2v2h-2zM8 138h2v2h-2zM12 138h2v2h-2zM16 138h2v2h-2zM20 138h2v2h-2zM24 138h2v2h-2zM28 138h2v2h-2zM32 138h2v2h-2zM36 138h2v2h-2zM40 138h2v2h-2zM44 138h2v2h-2zM48 138h2v2h-2zM52 138h2v2h-2zM56 138h6v2h-6zM64 138h2v2h-2zM68 138h2v2h-2zM72 138h2v2h-2zM76 138h2v2h-2zM80 138h2v2h-2zM84 138h2v2h-2zM88 138h2v2h-2zM92 138h2v2h-2zM96 138h2v2h-2zM100 138h2v2h-2zM104 138h2v2h-2zM108 138h2v2h-2zM112 138h2v2h-2zM116 138h2v2h-2zM120 138h2v2h-2zM124 138h2v2h-2zM128 138h2v2h-2zM132 138h2v2h-2zM136 138h2v2h-2zM252 138h2v2h-2zM256 138h2v2h-2zM260 138h2v2h-2zM264 138h2v2h-2zM268 138h2v2h-2zM272 138h2v2h-2zM276 138h2v2h-2zM280 138h2v2h-2zM284 138h2v2h-2zM288 138h2v2h-2zM292 138h2v2h-2zM296 138h2v2h-2zM300 138h2v2h-2zM304 138h2v2h-2zM308 138h2v2h-2zM312 138h2v2h-2zM316 138h2v2h-2zM320 138h2v2h-2zM324 138h2v2h-2zM328 138h2v2h-2zM332 138h2v2h-2zM336 138h2v2h-2zM340 138h2v2h-2zM344 138h2v2h-2zM348 138h2v2h-2zM352 138h2v2h-2zM356 138h2v2h-2zM360 138h2v2h-2zM364 138h2v2h-2zM368 138h2v2h-2zM372 138h2v2h-2zM376 138h2v2h-2zM6 140h2v2h-2zM10 140h2v2h-2zM30 140h2v2h-2zM34 140h2v2h-2zM42 140h2v2h-2zM46 140h2v2h-2zM54 140h2v2h-2zM58 140h2v2h-2zM62 140h2v2h-2zM86 140h2v2h-2zM90 140h2v2h-2zM94 140h2v2h-2zM114 140h2v2h-2zM134 140h2v2h-2zM138 140h2v2h-2zM250 140h2v2h-2zM258 140h2v2h-2zM262 140h2v2h-2zM266 140h2v2h-2zM270 140h2v2h-2zM274 140h2v2h-2zM282 140h2v2h-2zM294 140h2v2h-2zM298 140h2v2h-2zM306 140h2v2h-2zM310 140h2v2h-2zM314 140h2v2h-2zM334 140h2v2h-2zM342 140h2v2h-2zM350 140h2v2h-2zM354 140h2v2h-2zM358 140h2v2h-2zM362 140h2v6h-2zM366 140h2v2h-2zM370 140h2v2h-2zM374 140h2v2h-2zM378 140h2v2h-2zM382 140h2v2h-2zM4 142h2v2h-2zM8 142h2v2h-2zM12 142h2v2h-2zM16 142h2v2h-2zM20 142h2v2h-2zM24 142h2v2h-2zM28 142h2v2h-2zM32 142h2v2h-2zM36 142h2v2h-2zM40 142h2v2h-2zM44 142h2v2h-2zM48 142h2v2h-2zM52 142h2v2h-2zM56 142h2v2h-2zM60 142h2v2h-2zM64 142h2v2h-2zM68 142h2v2h-2zM72 142h2v2h-2zM76 142h2v2h-2zM80 142h2v2h-2zM84 142h2v2h-2zM88 142h2v2h-2zM92 142h2v2h-2zM96 142h2v2h-2zM100 142h2v2h-2zM104 142h2v2h-2zM108 142h2v2h-2zM112 142h2v2h-2zM116 142h2v2h-2zM120 142h2v2h-2zM124 142h2v2h-2zM128 142h2v2h-2zM132 142h2v2h-2zM136 142h2v2h-2zM140 142h2v2h-2zM252 142h2v2h-2zM256 142h2v2h-2zM260 142h2v2h-2zM264 142h2v2h-2zM268 142h2v2h-2zM272 142h2v2h-2zM276 142h2v2h-2zM280 142h2v2h-2zM284 142h2v2h-2zM288 142h2v2h-2zM292 142h2v2h-2zM296 142h2v2h-2zM300 142h2v2h-2zM304 142h2v2h-2zM308 142h2v2h-2zM312 142h2v2h-2zM316 142h2v2h-2zM320 142h2v2h-2zM324 142h2v2h-2zM328 142h2v2h-2zM332 142h2v2h-2zM336 142h2v2h-2zM340 142h2v2h-2zM344 142h2v2h-2zM348 142h2v2h-2zM352 142h2v2h-2zM356 142h2v2h-2zM360 142h2v2h-2zM364 142h2v2h-2zM368 142h2v2h-2zM372 142h2v2h-2zM376 142h2v2h-2zM380 142h2v2h-2zM14 144h2v2h-2zM30 144h2v10h-2zM58 144h2v2h-2zM62 144h2v2h-2zM82 144h2v2h-2zM86 144h2v2h-2zM102 144h2v2h-2zM114 144h2v10h-2zM262 144h2v2h-2zM266 144h2v2h-2zM270 144h2v2h-2zM274 144h2v2h-2zM278 144h2v2h-2zM282 144h2v2h-2zM286 144h2v2h-2zM290 144h2v2h-2zM306 144h2v2h-2zM310 144h2v2h-2zM314 144h2v6h-2zM346 144h2v2h-2zM350 144h2v2h-2zM354 144h2v2h-2zM358 144h2v2h-2zM366 144h2v2h-2zM370 144h2v2h-2zM374 144h2v2h-2zM4 146h2v2h-2zM8 146h2v2h-2zM12 146h2v2h-2zM16 146h2v2h-2zM20 146h2v2h-2zM24 146h2v2h-2zM28 146h2v2h-2zM32 146h2v2h-2zM36 146h2v2h-2zM40 146h2v2h-2zM44 146h2v2h-2zM48 146h2v2h-2zM52 146h2v2h-2zM56 146h2v2h-2zM60 146h2v2h-2zM64 146h2v2h-2zM68 146h2v2h-2zM72 146h2v2h-2zM76 146h2v2h-2zM80 146h2v2h-2zM84 146h2v2h-2zM88 146h2v2h-2zM92 146h2v2h-2zM96 146h2v2h-2zM100 146h2v2h-2zM104 146h2v2h-2zM108 146h2v2h-2zM112 146h2v2h-2zM116 146h2v2h-2zM120 146h2v2h-2zM124 146h2v2h-2zM128 146h2v2h-2zM132 146h2v2h-2zM136 146h2v2h-2zM252 146h2v2h-2zM256 146h2v2h-2zM260 146h2v2h-2zM264 146h2v2h-2zM268 146h2v2h-2zM272 146h2v2h-2zM276 146h2v2h-2zM280 146h2v2h-2zM284 146h2v2h-2zM288 146h2v2h-2zM292 146h2v2h-2zM296 146h2v2h-2zM300 146h2v2h-2zM304 146h2v2h-2zM308 146h2v2h-2zM312 146h2v2h-2zM316 146h2v2h-2zM320 146h2v2h-2zM324 146h2v2h-2zM328 146h2v2h-2zM332 146h2v2h-2zM336 146h2v2h-2zM340 146h2v2h-2zM344 146h2v2h-2zM348 146h2v2h-2zM352 146h2v2h-2zM356 146h2v2h-2zM360 146h2v2h-2zM364 146h2v2h-2zM368 146h2v2h-2zM372 146h2v2h-2zM376 146h2v2h-2zM14 148h2v2h-2zM62 148h2v2h-2zM70 148h2v6h-2zM126 148h2v2h-2zM134 148h2v2h-2zM262 148h2v2h-2zM266 148h2v2h-2zM270 148h2v2h-2zM274 148h2v2h-2zM278 148h2v2h-2zM282 148h2v2h-2zM286 148h2v2h-2zM298 148h2v4h-2zM310 148h2v2h-2zM334 148h2v4h-2zM346 148h2v2h-2zM350 148h2v2h-2zM354 148h2v2h-2zM358 148h2v2h-2zM362 148h2v2h-2zM366 148h2v2h-2zM370 148h2v2h-2zM12 150h2v2h-2zM16 150h2v2h-2zM20 150h2v2h-2zM24 150h2v2h-2zM28 150h2v2h-2zM32 150h2v2h-2zM40 150h2v2h-2zM44 150h2v2h-2zM48 150h2v2h-2zM52 150h2v2h-2zM60 150h2v2h-2zM64 150h2v2h-2zM68 150h2v2h-2zM72 150h2v2h-2zM76 150h2v6h-2zM80 150h2v2h-2zM84 150h2v2h-2zM92 150h2v2h-2zM100 150h2v2h-2zM104 150h2v2h-2zM108 150h2v2h-2zM112 150h2v2h-2zM116 150h2v2h-2zM120 150h2v2h-2zM124 150h2v2h-2zM128 150h2v2h-2zM132 150h2v2h-2zM264 150h2v2h-2zM268 150h2v2h-2zM272 150h2v2h-2zM276 150h2v2h-2zM280 150h2v2h-2zM284 150h2v2h-2zM288 150h2v2h-2zM292 150h2v2h-2zM296 150h2v2h-2zM304 150h2v2h-2zM308 150h2v2h-2zM312 150h2v2h-2zM316 150h2v2h-2zM320 150h2v2h-2zM324 150h2v2h-2zM328 150h2v2h-2zM336 150h2v2h-2zM340 150h2v2h-2zM344 150h2v2h-2zM348 150h2v2h-2zM352 150h2v2h-2zM356 150h2v2h-2zM360 150h2v2h-2zM364 150h2v2h-2zM368 150h2v2h-2zM22 152h2v2h-2zM26 152h2v2h-2zM50 152h2v2h-2zM62 152h2v6h-2zM78 152h2v6h-2zM82 152h2v24h-2zM94 152h2v2h-2zM122 152h2v2h-2zM274 152h2v2h-2zM278 152h2v2h-2zM294 152h2v4h-2zM306 152h2v4h-2zM310 152h2v6h-2zM314 152h2v34h-2zM326 152h2v24h-2zM330 152h2v14h-2zM338 152h2v4h-2zM354 152h2v2h-2zM358 152h2v2h-2zM24 154h2v2h-2zM28 154h2v2h-2zM32 154h2v2h-2zM36 154h2v2h-2zM40 154h2v2h-2zM44 154h2v2h-2zM48 154h2v2h-2zM60 154h2v2h-2zM64 154h2v2h-2zM68 154h2v2h-2zM72 154h2v2h-2zM80 154h2v2h-2zM84 154h2v2h-2zM96 154h2v2h-2zM104 154h2v2h-2zM108 154h2v2h-2zM112 154h2v2h-2zM116 154h2v2h-2zM120 154h2v2h-2zM228 154h2v2h-2zM276 154h2v2h-2zM280 154h2v2h-2zM284 154h2v2h-2zM288 154h2v2h-2zM292 154h2v2h-2zM304 154h2v2h-2zM308 154h2v2h-2zM312 154h2v2h-2zM316 154h2v2h-2zM320 154h2v2h-2zM324 154h2v2h-2zM328 154h2v2h-2zM340 154h2v2h-2zM348 154h2v2h-2zM352 154h2v2h-2zM356 154h2v2h-2zM46 156h2v2h-2zM58 156h2v10h-2zM66 156h2v28h-2zM70 156h2v32h-2zM74 156h2v30h-2zM86 156h2v10h-2zM98 156h2v2h-2zM158 156h2v2h-2zM226 156h2v2h-2zM290 156h2v2h-2zM302 156h2v10h-2zM40 158h6v2h-6zM56 158h2v2h-2zM60 158h2v6h-2zM64 158h2v2h-2zM68 158h2v2h-2zM72 158h2v2h-2zM76 158h2v2h-2zM80 158h2v6h-2zM84 158h2v6h-2zM100 158h2v2h-2zM160 158h2v2h-2zM228 158h2v2h-2zM288 158h2v2h-2zM304 158h2v2h-2zM308 158h2v2h-2zM312 158h2v2h-2zM316 158h2v2h-2zM320 158h2v2h-2zM324 158h2v2h-2zM328 158h2v2h-2zM344 158h4v2h-4zM38 160h2v2h-2zM62 160h2v16h-2zM78 160h2v22h-2zM226 160h2v2h-2zM282 160h2v2h-2zM350 160h2v2h-2zM36 162h2v2h-2zM56 162h2v2h-2zM64 162h2v2h-2zM68 162h2v2h-2zM72 162h2v2h-2zM76 162h2v2h-2zM104 162h4v2h-4zM160 162h2v2h-2zM224 162h2v2h-2zM280 162h2v2h-2zM300 162h2v2h-2zM304 162h2v2h-2zM308 162h2v2h-2zM312 162h2v2h-2zM316 162h2v2h-2zM320 162h2v2h-2zM324 162h2v2h-2zM328 162h2v2h-2zM332 162h2v2h-2zM352 162h2v2h-2zM54 164h2v12h-2zM90 164h2v24h-2zM110 164h2v2h-2zM162 164h2v4h-2zM298 164h2v6h-2zM306 164h2v2h-2zM310 164h2v2h-2zM334 164h2v2h-2zM28 166h4v2h-4zM52 166h2v2h-2zM60 166h2v6h-2zM64 166h2v10h-2zM68 166h2v2h-2zM72 166h2v2h-2zM76 166h2v2h-2zM80 166h2v10h-2zM84 166h2v2h-2zM88 166h2v2h-2zM112 166h2v2h-2zM224 166h2v2h-2zM300 166h2v2h-2zM304 166h2v2h-2zM308 166h2v2h-2zM312 166h2v2h-2zM316 166h2v2h-2zM320 166h2v2h-2zM324 166h2v2h-2zM328 166h2v2h-2zM332 166h2v2h-2zM222 168h2v2h-2zM306 168h2v8h-2zM310 168h2v10h-2zM334 168h2v2h-2zM52 170h2v2h-2zM68 170h2v2h-2zM72 170h2v2h-2zM76 170h2v2h-2zM164 170h2v2h-2zM296 170h2v2h-2zM304 170h2v2h-2zM308 170h2v2h-2zM312 170h2v2h-2zM316 170h2v2h-2zM320 170h2v2h-2zM324 170h2v2h-2zM50 172h2v12h-2zM166 172h2v8h-2zM222 172h2v2h-2zM298 172h2v12h-2zM334 172h2v14h-2zM52 174h2v2h-2zM68 174h2v2h-2zM72 174h2v2h-2zM76 174h2v10h-2zM92 174h2v6h-2zM164 174h2v2h-2zM220 174h2v2h-2zM296 174h2v2h-2zM308 174h2v2h-2zM312 174h2v2h-2zM316 174h2v2h-2zM320 174h2v2h-2zM324 174h2v2h-2zM332 174h2v2h-2zM336 174h2v2h-2zM52 178h2v10h-2zM64 178h2v6h-2zM68 178h2v6h-2zM72 178h2v10h-2zM220 178h2v2h-2zM296 178h2v2h-2zM308 178h2v2h-2zM312 178h2v2h-2zM316 178h2v2h-2zM320 178h2v2h-2zM324 178h2v2h-2zM332 178h2v2h-2zM336 178h2v2h-2zM218 180h2v6h-2zM310 180h2v4h-2zM168 182h2v2h-2zM300 182h4v2h-4zM312 182h2v2h-2zM316 182h2v2h-2zM320 182h2v2h-2zM332 182h2v2h-2zM170 184h2v10h-2zM194 184h2v2h-2zM302 184h2v8h-2zM168 186h2v2h-2zM192 186h2v2h-2zM300 186h2v2h-2zM316 186h2v2h-2zM332 186h2v2h-2zM50 188h2v6h-2zM194 188h2v134h-2zM218 188h2v10h-2zM48 190h2v2h-2zM92 190h2v2h-2zM168 190h2v2h-2zM192 190h2v2h-2zM216 190h2v2h-2zM300 190h2v2h-2zM94 192h2v2h-2zM198 192h2v2h-2zM48 194h2v2h-2zM168 194h2v2h-2zM192 194h2v2h-2zM196 194h2v2h-2zM216 194h2v2h-2zM332 194h4v2h-4zM46 196h2v4h-2zM98 196h2v4h-2zM170 196h2v10h-2zM190 196h2v66h-2zM298 196h2v4h-2zM44 198h2v2h-2zM168 198h2v2h-2zM184 198h6v2h-6zM192 198h2v2h-2zM196 198h8v2h-8zM216 198h2v2h-2zM296 198h2v2h-2zM182 200h2v8h-2zM186 200h2v44h-2zM198 200h2v118h-2zM202 200h2v10h-2zM206 200h2v8h-2zM218 200h2v2h-2zM100 202h2v2h-2zM180 202h2v6h-2zM184 202h2v2h-2zM188 202h2v2h-2zM192 202h2v2h-2zM196 202h2v2h-2zM200 202h2v6h-2zM204 202h2v6h-2zM216 202h2v2h-2zM296 202h2v2h-2zM336 202h4v2h-4zM42 204h2v2h-2zM102 204h2v2h-2zM294 204h2v2h-2zM338 204h2v2h-2zM40 206h2v2h-2zM184 206h2v2h-2zM188 206h2v2h-2zM192 206h2v6h-2zM196 206h2v114h-2zM216 206h2v2h-2zM292 206h2v2h-2zM188 210h2v2h-2zM200 210h2v2h-2zM202 212h2v46h-2zM214 212h2v2h-2zM172 214h2v2h-2zM184 214h2v2h-2zM188 214h2v2h-2zM192 214h2v2h-2zM200 214h2v2h-2zM212 214h2v6h-2zM174 216h6v4h-6zM182 216h2v26h-2zM206 216h2v2h-2zM210 216h2v8h-2zM214 216h2v2h-2zM180 218h2v2h-2zM184 218h2v2h-2zM188 218h2v26h-2zM192 218h2v42h-2zM200 218h2v10h-2zM204 218h2v6h-2zM208 218h2v2h-2zM176 220h4v2h-4zM206 220h2v22h-2zM178 222h4v2h-4zM184 222h2v2h-2zM208 222h2v2h-2zM276 222h2v2h-2zM280 222h2v2h-2zM284 222h2v2h-2zM288 222h2v2h-2zM292 222h2v2h-2zM296 222h2v2h-2zM300 222h2v2h-2zM82 224h2v2h-2zM86 224h2v2h-2zM90 224h2v2h-2zM94 224h2v2h-2zM98 224h2v2h-2zM102 224h2v2h-2zM106 224h2v2h-2zM110 224h2v2h-2zM114 224h2v6h-2zM118 224h2v6h-2zM122 224h2v6h-2zM126 224h2v6h-2zM130 224h2v2h-2zM134 224h2v2h-2zM178 224h2v2h-2zM246 224h2v2h-2zM250 224h2v6h-2zM254 224h2v2h-2zM258 224h2v2h-2zM262 224h2v2h-2zM266 224h2v2h-2zM270 224h2v2h-2zM274 224h2v2h-2zM278 224h2v2h-2zM282 224h2v2h-2zM286 224h2v2h-2zM290 224h2v2h-2zM294 224h2v2h-2zM298 224h2v2h-2zM302 224h2v2h-2zM306 224h2v2h-2zM310 224h2v2h-2zM76 226h6v2h-6zM84 226h2v2h-2zM88 226h2v2h-2zM92 226h2v2h-2zM96 226h2v2h-2zM100 226h2v2h-2zM104 226h2v2h-2zM108 226h2v2h-2zM112 226h2v2h-2zM116 226h2v2h-2zM120 226h2v2h-2zM124 226h2v2h-2zM128 226h2v2h-2zM132 226h2v2h-2zM136 226h2v2h-2zM140 226h8v2h-8zM180 226h2v14h-2zM184 226h2v2h-2zM204 226h2v6h-2zM208 226h2v2h-2zM240 226h2v2h-2zM244 226h2v2h-2zM248 226h2v2h-2zM252 226h2v2h-2zM256 226h2v2h-2zM260 226h2v2h-2zM264 226h2v2h-2zM268 226h2v2h-2zM272 226h2v2h-2zM276 226h2v2h-2zM280 226h2v2h-2zM284 226h2v2h-2zM288 226h2v2h-2zM292 226h2v2h-2zM296 226h2v2h-2zM300 226h2v2h-2zM304 226h2v2h-2zM308 226h2v2h-2zM312 226h2v2h-2zM74 228h2v2h-2zM78 228h2v2h-2zM82 228h2v2h-2zM86 228h2v2h-2zM90 228h2v2h-2zM94 228h2v2h-2zM98 228h2v2h-2zM102 228h2v2h-2zM106 228h2v2h-2zM110 228h2v2h-2zM130 228h2v6h-2zM134 228h2v6h-2zM138 228h2v2h-2zM142 228h2v2h-2zM146 228h2v2h-2zM150 228h2v6h-2zM154 228h2v6h-2zM158 228h2v10h-2zM178 228h2v2h-2zM226 228h2v10h-2zM230 228h2v6h-2zM234 228h2v2h-2zM238 228h2v2h-2zM242 228h2v2h-2zM246 228h2v2h-2zM254 228h2v2h-2zM258 228h2v2h-2zM262 228h2v2h-2zM266 228h2v2h-2zM270 228h2v2h-2zM274 228h2v2h-2zM278 228h2v2h-2zM294 228h2v2h-2zM298 228h2v2h-2zM302 228h2v2h-2zM306 228h2v2h-2zM310 228h2v2h-2zM314 228h2v2h-2zM318 228h2v2h-2zM68 230h2v2h-2zM72 230h2v2h-2zM76 230h2v2h-2zM80 230h2v2h-2zM84 230h2v2h-2zM88 230h2v2h-2zM92 230h2v2h-2zM96 230h2v2h-2zM100 230h2v2h-2zM104 230h2v2h-2zM108 230h2v2h-2zM112 230h2v2h-2zM116 230h2v2h-2zM120 230h2v2h-2zM124 230h2v2h-2zM128 230h2v2h-2zM132 230h2v2h-2zM136 230h2v2h-2zM140 230h2v2h-2zM144 230h2v2h-2zM148 230h2v2h-2zM152 230h2v2h-2zM156 230h2v2h-2zM160 230h4v2h-4zM184 230h2v2h-2zM200 230h2v14h-2zM208 230h2v6h-2zM220 230h6v2h-6zM228 230h2v2h-2zM232 230h2v2h-2zM236 230h2v2h-2zM240 230h2v2h-2zM244 230h2v2h-2zM248 230h2v2h-2zM252 230h2v2h-2zM256 230h2v2h-2zM260 230h2v2h-2zM264 230h2v2h-2zM268 230h2v2h-2zM272 230h2v2h-2zM276 230h2v2h-2zM280 230h2v2h-2zM284 230h2v2h-2zM288 230h2v2h-2zM292 230h2v2h-2zM296 230h2v2h-2zM300 230h2v2h-2zM304 230h2v2h-2zM308 230h2v2h-2zM312 230h2v2h-2zM316 230h2v2h-2zM66 232h2v2h-2zM70 232h2v2h-2zM74 232h2v2h-2zM86 232h2v2h-2zM90 232h2v2h-2zM94 232h2v2h-2zM98 232h2v2h-2zM102 232h2v2h-2zM106 232h2v2h-2zM110 232h2v2h-2zM114 232h2v2h-2zM118 232h2v2h-2zM122 232h2v2h-2zM126 232h2v2h-2zM138 232h2v2h-2zM142 232h2v2h-2zM146 232h2v2h-2zM162 232h2v6h-2zM166 232h2v8h-2zM170 232h6v4h-6zM178 232h2v12h-2zM210 232h6v4h-6zM218 232h2v6h-2zM222 232h2v6h-2zM234 232h2v2h-2zM238 232h2v2h-2zM242 232h2v2h-2zM246 232h2v2h-2zM250 232h2v2h-2zM254 232h2v2h-2zM258 232h2v2h-2zM262 232h2v2h-2zM266 232h2v2h-2zM270 232h2v2h-2zM274 232h2v2h-2zM282 232h2v2h-2zM286 232h2v2h-2zM290 232h2v2h-2zM298 232h2v2h-2zM310 232h2v2h-2zM314 232h2v2h-2zM318 232h2v2h-2zM64 234h2v2h-2zM68 234h2v2h-2zM72 234h2v2h-2zM76 234h2v2h-2zM80 234h2v2h-2zM84 234h2v2h-2zM88 234h2v2h-2zM92 234h2v2h-2zM96 234h2v2h-2zM100 234h2v2h-2zM104 234h2v2h-2zM108 234h2v2h-2zM112 234h2v2h-2zM116 234h2v2h-2zM120 234h2v2h-2zM124 234h2v2h-2zM128 234h2v2h-2zM132 234h2v2h-2zM136 234h2v2h-2zM140 234h2v2h-2zM144 234h2v2h-2zM148 234h2v2h-2zM152 234h2v2h-2zM156 234h2v2h-2zM160 234h2v2h-2zM164 234h2v2h-2zM168 234h2v2h-2zM176 234h2v2h-2zM184 234h2v2h-2zM204 234h2v2h-2zM216 234h2v2h-2zM220 234h2v2h-2zM224 234h2v2h-2zM228 234h2v2h-2zM232 234h2v2h-2zM236 234h2v2h-2zM240 234h2v2h-2zM244 234h2v2h-2zM248 234h2v2h-2zM252 234h2v2h-2zM256 234h2v2h-2zM260 234h2v2h-2zM264 234h2v2h-2zM268 234h2v2h-2zM272 234h2v2h-2zM276 234h2v2h-2zM280 234h2v2h-2zM284 234h2v2h-2zM288 234h2v2h-2zM292 234h2v2h-2zM296 234h2v2h-2zM300 234h2v2h-2zM304 234h2v2h-2zM308 234h2v2h-2zM312 234h2v2h-2zM316 234h2v2h-2zM320 234h2v2h-2zM66 236h2v2h-2zM70 236h2v2h-2zM74 236h2v2h-2zM78 236h2v2h-2zM82 236h2v2h-2zM90 236h2v2h-2zM94 236h2v2h-2zM102 236h2v2h-2zM106 236h2v2h-2zM110 236h2v2h-2zM114 236h2v2h-2zM118 236h2v2h-2zM122 236h2v2h-2zM126 236h2v2h-2zM130 236h2v2h-2zM134 236h2v2h-2zM138 236h2v2h-2zM142 236h2v4h-2zM146 236h2v2h-2zM150 236h2v2h-2zM154 236h2v2h-2zM170 236h2v2h-2zM174 236h2v2h-2zM210 236h2v8h-2zM230 236h2v2h-2zM242 236h2v2h-2zM246 236h2v2h-2zM250 236h2v2h-2zM254 236h2v2h-2zM258 236h2v2h-2zM262 236h2v2h-2zM266 236h2v2h-2zM270 236h2v2h-2zM286 236h2v2h-2zM290 236h2v2h-2zM298 236h2v2h-2zM310 236h2v2h-2zM314 236h2v2h-2zM64 238h2v2h-2zM68 238h2v2h-2zM72 238h2v2h-2zM76 238h2v2h-2zM80 238h2v2h-2zM84 238h2v2h-2zM88 238h2v2h-2zM92 238h2v2h-2zM96 238h2v2h-2zM100 238h2v2h-2zM104 238h2v2h-2zM108 238h2v2h-2zM112 238h2v2h-2zM116 238h2v2h-2zM120 238h2v2h-2zM124 238h2v2h-2zM128 238h2v2h-2zM132 238h2v2h-2zM136 238h2v2h-2zM140 238h2v2h-2zM144 238h2v2h-2zM148 238h2v2h-2zM152 238h2v2h-2zM156 238h2v2h-2zM160 238h2v2h-2zM164 238h2v2h-2zM168 238h2v2h-2zM172 238h2v2h-2zM176 238h2v6h-2zM184 238h2v6h-2zM204 238h2v2h-2zM208 238h2v2h-2zM212 238h2v6h-2zM216 238h2v2h-2zM220 238h2v2h-2zM224 238h2v2h-2zM228 238h2v2h-2zM232 238h2v2h-2zM236 238h2v2h-2zM240 238h2v2h-2zM244 238h2v2h-2zM248 238h2v2h-2zM252 238h2v2h-2zM256 238h2v2h-2zM260 238h2v2h-2zM264 238h2v2h-2zM268 238h2v2h-2zM272 238h2v2h-2zM276 238h2v2h-2zM280 238h2v2h-2zM284 238h2v2h-2zM288 238h2v2h-2zM292 238h2v2h-2zM296 238h2v2h-2zM300 238h2v2h-2zM304 238h2v2h-2zM308 238h2v2h-2zM312 238h2v2h-2zM316 238h2v2h-2zM320 238h2v2h-2zM66 240h2v2h-2zM70 240h2v2h-2zM82 240h2v2h-2zM86 240h2v2h-2zM90 240h2v2h-2zM102 240h2v2h-2zM110 240h2v2h-2zM114 240h2v2h-2zM122 240h2v2h-2zM126 240h2v2h-2zM130 240h2v2h-2zM134 240h2v2h-2zM138 240h2v2h-2zM146 240h2v2h-2zM150 240h2v2h-2zM154 240h2v2h-2zM158 240h2v2h-2zM162 240h2v2h-2zM174 240h2v6h-2zM214 240h2v6h-2zM226 240h2v2h-2zM238 240h2v2h-2zM250 240h2v2h-2zM254 240h2v2h-2zM258 240h2v2h-2zM262 240h2v2h-2zM282 240h2v2h-2zM286 240h2v2h-2zM314 240h2v2h-2zM68 242h2v2h-2zM72 242h2v2h-2zM76 242h2v2h-2zM80 242h2v2h-2zM84 242h2v2h-2zM88 242h2v2h-2zM92 242h2v2h-2zM96 242h2v2h-2zM100 242h2v2h-2zM104 242h2v2h-2zM108 242h2v2h-2zM112 242h2v2h-2zM116 242h2v2h-2zM120 242h2v2h-2zM124 242h2v2h-2zM128 242h2v2h-2zM132 242h2v2h-2zM136 242h2v2h-2zM140 242h2v2h-2zM144 242h2v2h-2zM148 242h2v2h-2zM152 242h2v2h-2zM156 242h2v2h-2zM160 242h2v2h-2zM164 242h2v2h-2zM168 242h2v2h-2zM172 242h2v2h-2zM180 242h2v2h-2zM204 242h2v2h-2zM216 242h2v2h-2zM220 242h2v2h-2zM224 242h2v2h-2zM228 242h2v2h-2zM232 242h2v2h-2zM236 242h2v2h-2zM240 242h2v2h-2zM244 242h2v2h-2zM248 242h2v2h-2zM252 242h2v2h-2zM256 242h2v2h-2zM260 242h2v2h-2zM264 242h2v2h-2zM268 242h2v2h-2zM272 242h2v2h-2zM276 242h2v2h-2zM280 242h2v2h-2zM284 242h2v2h-2zM288 242h2v2h-2zM292 242h2v2h-2zM296 242h2v2h-2zM300 242h2v2h-2zM304 242h2v2h-2zM308 242h2v2h-2zM312 242h2v2h-2zM74 244h2v2h-2zM78 244h2v2h-2zM82 244h2v2h-2zM98 244h2v2h-2zM102 244h2v2h-2zM106 244h2v2h-2zM110 244h2v2h-2zM118 244h2v2h-2zM122 244h2v2h-2zM130 244h2v2h-2zM138 244h2v2h-2zM142 244h2v2h-2zM170 244h2v6h-2zM182 244h2v2h-2zM206 244h2v2h-2zM218 244h2v6h-2zM234 244h2v2h-2zM246 244h2v2h-2zM258 244h2v2h-2zM270 244h2v2h-2zM294 244h2v2h-2zM302 244h2v2h-2zM306 244h2v2h-2zM80 246h2v2h-2zM84 246h2v2h-2zM88 246h2v2h-2zM92 246h2v2h-2zM96 246h2v2h-2zM100 246h2v2h-2zM104 246h2v2h-2zM108 246h2v2h-2zM112 246h2v2h-2zM116 246h2v2h-2zM120 246h2v2h-2zM124 246h2v2h-2zM128 246h2v2h-2zM132 246h2v2h-2zM136 246h2v2h-2zM140 246h2v2h-2zM144 246h2v2h-2zM148 246h2v2h-2zM152 246h2v2h-2zM156 246h2v2h-2zM160 246h2v2h-2zM168 246h2v2h-2zM172 246h2v2h-2zM180 246h2v2h-2zM184 246h6v2h-6zM200 246h2v38h-2zM204 246h2v2h-2zM208 246h2v2h-2zM216 246h2v2h-2zM220 246h2v2h-2zM228 246h2v2h-2zM232 246h2v2h-2zM236 246h2v2h-2zM240 246h2v2h-2zM244 246h2v2h-2zM248 246h2v2h-2zM252 246h2v2h-2zM256 246h2v2h-2zM260 246h2v2h-2zM264 246h2v2h-2zM268 246h2v2h-2zM272 246h2v2h-2zM276 246h2v2h-2zM280 246h2v2h-2zM284 246h2v2h-2zM288 246h2v2h-2zM292 246h2v2h-2zM296 246h2v2h-2zM300 246h2v2h-2zM90 248h2v2h-2zM94 248h2v2h-2zM106 248h2v2h-2zM110 248h2v2h-2zM114 248h2v2h-2zM130 248h2v2h-2zM134 248h2v2h-2zM166 248h2v6h-2zM186 248h2v10h-2zM222 248h2v4h-2zM238 248h2v2h-2zM254 248h2v2h-2zM258 248h2v2h-2zM274 248h2v2h-2zM278 248h2v2h-2zM92 250h2v2h-2zM96 250h2v2h-2zM100 250h2v2h-2zM104 250h2v2h-2zM108 250h2v2h-2zM112 250h2v2h-2zM116 250h2v2h-2zM120 250h2v2h-2zM124 250h2v2h-2zM128 250h2v2h-2zM132 250h2v2h-2zM136 250h2v2h-2zM140 250h2v2h-2zM144 250h2v2h-2zM148 250h2v2h-2zM152 250h2v2h-2zM156 250h2v2h-2zM164 250h2v2h-2zM168 250h2v2h-2zM184 250h2v2h-2zM188 250h2v10h-2zM220 250h2v2h-2zM236 250h2v2h-2zM240 250h2v2h-2zM244 250h2v2h-2zM248 250h2v2h-2zM252 250h2v2h-2zM256 250h2v2h-2zM260 250h2v2h-2zM264 250h2v2h-2zM268 250h2v2h-2zM272 250h2v2h-2zM276 250h2v2h-2zM280 250h2v2h-2zM284 250h2v2h-2zM288 250h2v2h-2zM110 252h2v2h-2zM114 252h2v2h-2zM118 252h2v2h-2zM122 252h2v2h-2zM126 252h2v2h-2zM130 252h2v2h-2zM146 252h2v2h-2zM162 252h2v2h-2zM246 252h2v2h-2zM250 252h2v2h-2zM254 252h2v2h-2zM258 252h2v2h-2zM262 252h2v2h-2zM266 252h2v2h-2zM120 254h2v2h-2zM124 254h2v2h-2zM128 254h2v2h-2zM132 254h2v2h-2zM136 254h2v2h-2zM140 254h2v2h-2zM144 254h2v2h-2zM164 254h2v2h-2zM184 254h2v2h-2zM204 254h2v2h-2zM224 254h2v2h-2zM252 254h2v2h-2zM256 254h2v2h-2zM162 256h2v2h-2zM182 256h2v10h-2zM206 256h2v8h-2zM160 258h2v2h-2zM180 258h2v2h-2zM184 258h2v2h-2zM204 258h2v2h-2zM352 258h2v2h-2zM186 260h2v44h-2zM202 260h2v46h-2zM230 260h2v2h-2zM180 262h2v2h-2zM188 262h2v2h-2zM192 262h2v2h-2zM208 262h2v2h-2zM228 262h2v2h-2zM158 264h2v4h-2zM178 264h2v14h-2zM190 264h2v10h-2zM210 264h2v12h-2zM230 264h2v2h-2zM156 266h2v2h-2zM180 266h2v2h-2zM188 266h2v2h-2zM192 266h2v6h-2zM208 266h2v2h-2zM54 268h2v64h-2zM58 268h2v2h-2zM70 268h2v2h-2zM40 270h2v2h-2zM52 270h2v2h-2zM56 270h2v2h-2zM68 270h2v2h-2zM156 270h2v2h-2zM176 270h2v2h-2zM188 270h2v2h-2zM208 270h2v2h-2zM232 270h4v2h-4zM332 270h2v2h-2zM344 270h2v2h-2zM42 272h2v2h-2zM50 272h2v10h-2zM58 272h2v60h-2zM154 272h2v6h-2zM212 272h4v4h-4zM234 272h2v4h-2zM330 272h2v2h-2zM334 272h2v2h-2zM342 272h2v8h-2zM40 274h2v2h-2zM48 274h2v6h-2zM52 274h2v6h-2zM56 274h2v10h-2zM60 274h4v14h-4zM68 274h2v2h-2zM152 274h2v2h-2zM176 274h2v6h-2zM188 274h2v2h-2zM192 274h2v2h-2zM232 274h2v2h-2zM320 274h2v2h-2zM328 274h2v2h-2zM332 274h2v2h-2zM46 276h2v10h-2zM64 276h2v4h-2zM174 276h2v6h-2zM190 276h2v40h-2zM214 276h2v12h-2zM322 276h2v2h-2zM326 276h2v2h-2zM330 276h2v6h-2zM334 276h2v6h-2zM338 276h2v2h-2zM44 278h2v2h-2zM152 278h2v2h-2zM172 278h2v2h-2zM188 278h2v2h-2zM192 278h2v30h-2zM212 278h2v2h-2zM236 278h2v2h-2zM320 278h2v2h-2zM324 278h2v2h-2zM328 278h2v2h-2zM332 278h2v2h-2zM336 278h2v2h-2zM340 278h2v2h-2zM42 280h2v4h-2zM150 280h2v8h-2zM238 280h2v8h-2zM322 280h2v2h-2zM326 280h2v2h-2zM44 282h2v2h-2zM48 282h2v2h-2zM52 282h2v2h-2zM64 282h2v2h-2zM172 282h2v6h-2zM188 282h2v2h-2zM212 282h2v2h-2zM236 282h2v2h-2zM324 282h2v2h-2zM328 282h2v2h-2zM332 282h2v2h-2zM336 282h2v2h-2zM340 282h2v2h-2zM50 284h2v18h-2zM66 284h2v2h-2zM174 284h2v6h-2zM322 284h2v2h-2zM326 284h2v2h-2zM330 284h2v42h-2zM334 284h2v42h-2zM338 284h2v14h-2zM44 286h2v2h-2zM48 286h2v2h-2zM52 286h2v2h-2zM56 286h2v2h-2zM64 286h2v2h-2zM148 286h2v2h-2zM188 286h2v2h-2zM200 286h2v2h-2zM216 286h2v2h-2zM240 286h2v2h-2zM324 286h2v2h-2zM328 286h2v2h-2zM332 286h2v2h-2zM336 286h2v2h-2zM340 286h2v2h-2zM46 288h2v10h-2zM62 288h2v14h-2zM66 288h2v2h-2zM146 288h2v6h-2zM242 288h2v4h-2zM286 288h2v2h-2zM290 288h2v2h-2zM294 288h2v2h-2zM322 288h2v6h-2zM326 288h2v14h-2zM342 288h2v2h-2zM366 288h2v2h-2zM370 288h2v2h-2zM374 288h2v2h-2zM378 288h2v2h-2zM44 290h2v2h-2zM48 290h2v2h-2zM52 290h2v2h-2zM56 290h2v2h-2zM60 290h2v2h-2zM64 290h2v2h-2zM148 290h2v2h-2zM172 290h2v2h-2zM188 290h2v2h-2zM200 290h2v2h-2zM216 290h2v2h-2zM240 290h2v2h-2zM280 290h2v2h-2zM284 290h2v2h-2zM288 290h2v2h-2zM292 290h2v2h-2zM296 290h8v2h-8zM320 290h2v2h-2zM324 290h2v2h-2zM328 290h2v2h-2zM332 290h2v2h-2zM336 290h2v2h-2zM340 290h2v2h-2zM356 290h10v2h-10zM368 290h2v2h-2zM372 290h2v2h-2zM376 290h2v2h-2zM380 290h4v2h-4zM10 292h2v2h-2zM14 292h2v2h-2zM18 292h2v2h-2zM22 292h2v2h-2zM26 292h2v2h-2zM30 292h2v2h-2zM34 292h2v6h-2zM38 292h2v2h-2zM42 292h2v6h-2zM66 292h2v6h-2zM70 292h2v2h-2zM74 292h2v2h-2zM78 292h2v6h-2zM82 292h2v2h-2zM86 292h2v2h-2zM90 292h2v2h-2zM94 292h2v2h-2zM98 292h2v2h-2zM102 292h2v2h-2zM278 292h2v2h-2zM282 292h2v2h-2zM286 292h2v2h-2zM290 292h2v2h-2zM294 292h2v2h-2zM298 292h2v2h-2zM302 292h2v4h-2zM306 292h2v2h-2zM310 292h2v2h-2zM314 292h2v6h-2zM318 292h2v2h-2zM342 292h2v6h-2zM346 292h2v4h-2zM350 292h2v6h-2zM354 292h2v6h-2zM358 292h2v4h-2zM362 292h2v4h-2zM366 292h2v2h-2zM370 292h2v2h-2zM374 292h2v2h-2zM378 292h2v2h-2zM382 292h2v2h-2zM386 292h2v2h-2zM8 294h2v2h-2zM12 294h2v2h-2zM16 294h2v2h-2zM20 294h2v2h-2zM24 294h2v2h-2zM28 294h2v2h-2zM32 294h2v2h-2zM36 294h2v2h-2zM40 294h2v2h-2zM44 294h2v2h-2zM48 294h2v2h-2zM52 294h2v2h-2zM56 294h2v2h-2zM60 294h2v2h-2zM64 294h2v2h-2zM68 294h2v2h-2zM72 294h2v2h-2zM76 294h2v2h-2zM80 294h2v2h-2zM84 294h2v2h-2zM88 294h2v2h-2zM92 294h2v2h-2zM96 294h2v2h-2zM100 294h2v2h-2zM104 294h2v2h-2zM144 294h2v2h-2zM172 294h2v2h-2zM188 294h2v2h-2zM200 294h2v2h-2zM216 294h2v2h-2zM244 294h4v2h-4zM276 294h2v2h-2zM280 294h2v2h-2zM284 294h2v2h-2zM288 294h2v2h-2zM292 294h2v2h-2zM296 294h2v2h-2zM300 294h2v2h-2zM304 294h2v2h-2zM308 294h2v2h-2zM312 294h2v2h-2zM316 294h2v2h-2zM320 294h2v2h-2zM324 294h2v2h-2zM328 294h2v2h-2zM332 294h2v2h-2zM336 294h2v2h-2zM340 294h2v2h-2zM344 294h2v2h-2zM348 294h2v2h-2zM352 294h2v2h-2zM356 294h2v2h-2zM360 294h2v2h-2zM364 294h2v2h-2zM368 294h2v2h-2zM372 294h2v2h-2zM376 294h2v2h-2zM380 294h2v2h-2zM384 294h2v2h-2zM22 296h2v2h-2zM26 296h2v2h-2zM30 296h2v2h-2zM38 296h2v2h-2zM70 296h2v2h-2zM74 296h2v2h-2zM86 296h2v2h-2zM142 296h2v2h-2zM174 296h2v14h-2zM290 296h2v2h-2zM306 296h2v2h-2zM310 296h2v2h-2zM318 296h2v2h-2zM370 296h2v2h-2zM374 296h2v2h-2zM4 298h2v2h-2zM8 298h2v2h-2zM12 298h2v2h-2zM16 298h2v2h-2zM20 298h2v2h-2zM24 298h2v2h-2zM28 298h2v2h-2zM32 298h2v2h-2zM36 298h2v2h-2zM40 298h2v2h-2zM44 298h2v2h-2zM48 298h2v2h-2zM52 298h2v2h-2zM56 298h2v2h-2zM60 298h2v2h-2zM64 298h2v2h-2zM68 298h2v2h-2zM72 298h2v2h-2zM76 298h2v2h-2zM80 298h2v2h-2zM84 298h2v2h-2zM88 298h2v2h-2zM92 298h2v2h-2zM96 298h2v2h-2zM100 298h2v2h-2zM104 298h2v2h-2zM140 298h2v2h-2zM172 298h2v2h-2zM188 298h2v2h-2zM200 298h2v2h-2zM216 298h2v2h-2zM248 298h4v2h-4zM280 298h2v2h-2zM284 298h2v2h-2zM288 298h2v2h-2zM292 298h2v2h-2zM296 298h2v2h-2zM300 298h2v2h-2zM304 298h2v2h-2zM308 298h2v2h-2zM312 298h2v2h-2zM316 298h2v2h-2zM320 298h2v2h-2zM324 298h2v2h-2zM328 298h2v2h-2zM332 298h2v2h-2zM336 298h2v2h-2zM340 298h2v2h-2zM344 298h2v2h-2zM348 298h2v2h-2zM352 298h2v2h-2zM356 298h2v2h-2zM360 298h2v2h-2zM364 298h2v2h-2zM368 298h2v2h-2zM372 298h2v2h-2zM376 298h2v2h-2zM380 298h2v2h-2zM42 300h2v4h-2zM66 300h2v2h-2zM98 300h2v2h-2zM138 300h2v2h-2zM310 300h2v2h-2zM322 300h2v2h-2zM338 300h2v26h-2zM366 300h2v2h-2zM374 300h2v2h-2zM8 302h2v2h-2zM12 302h2v2h-2zM16 302h2v2h-2zM20 302h2v2h-2zM24 302h2v2h-2zM28 302h2v2h-2zM32 302h2v2h-2zM36 302h2v2h-2zM40 302h2v2h-2zM44 302h2v2h-2zM48 302h2v2h-2zM52 302h2v2h-2zM56 302h2v2h-2zM60 302h2v2h-2zM64 302h2v2h-2zM68 302h2v2h-2zM72 302h2v2h-2zM76 302h2v2h-2zM80 302h2v2h-2zM84 302h2v2h-2zM88 302h2v2h-2zM92 302h2v2h-2zM96 302h2v2h-2zM100 302h2v2h-2zM136 302h2v2h-2zM172 302h2v2h-2zM188 302h2v2h-2zM200 302h2v6h-2zM216 302h2v2h-2zM252 302h2v2h-2zM288 302h2v2h-2zM292 302h2v2h-2zM296 302h2v2h-2zM300 302h2v2h-2zM304 302h2v2h-2zM308 302h2v2h-2zM312 302h2v2h-2zM320 302h2v2h-2zM324 302h2v2h-2zM328 302h2v2h-2zM332 302h2v2h-2zM336 302h2v2h-2zM340 302h2v2h-2zM348 302h2v2h-2zM352 302h2v2h-2zM356 302h2v2h-2zM360 302h2v2h-2zM364 302h2v2h-2zM368 302h2v2h-2zM372 302h2v2h-2zM376 302h2v2h-2zM22 304h2v2h-2zM50 304h2v26h-2zM62 304h2v22h-2zM66 304h2v2h-2zM70 304h2v2h-2zM134 304h2v2h-2zM214 304h2v2h-2zM310 304h2v2h-2zM322 304h2v18h-2zM326 304h2v22h-2zM342 304h2v14h-2zM362 304h2v2h-2zM366 304h2v2h-2zM16 306h2v2h-2zM20 306h2v2h-2zM24 306h2v2h-2zM28 306h2v2h-2zM32 306h2v2h-2zM36 306h2v2h-2zM40 306h2v2h-2zM44 306h2v2h-2zM48 306h2v2h-2zM52 306h2v2h-2zM56 306h2v2h-2zM60 306h2v2h-2zM64 306h2v2h-2zM68 306h2v2h-2zM72 306h2v2h-2zM76 306h2v2h-2zM80 306h2v2h-2zM84 306h2v2h-2zM88 306h2v2h-2zM132 306h2v2h-2zM188 306h2v2h-2zM212 306h2v2h-2zM256 306h2v2h-2zM308 306h2v2h-2zM320 306h2v2h-2zM324 306h2v2h-2zM328 306h2v2h-2zM332 306h2v2h-2zM336 306h2v2h-2zM340 306h2v2h-2zM356 306h2v2h-2zM42 308h2v2h-2zM46 308h2v16h-2zM66 308h2v14h-2zM130 308h2v2h-2zM214 308h2v8h-2zM318 308h2v2h-2zM32 310h2v2h-2zM44 310h2v2h-2zM48 310h2v2h-2zM52 310h2v2h-2zM56 310h2v22h-2zM60 310h2v2h-2zM64 310h2v2h-2zM68 310h2v2h-2zM80 310h2v2h-2zM124 310h6v2h-6zM176 310h2v2h-2zM188 310h2v2h-2zM192 310h2v2h-2zM212 310h2v2h-2zM260 310h2v2h-2zM316 310h2v2h-2zM320 310h2v2h-2zM324 310h2v2h-2zM328 310h2v2h-2zM332 310h2v2h-2zM336 310h2v2h-2zM340 310h2v2h-2zM344 310h2v2h-2zM42 312h2v2h-2zM70 312h2v6h-2zM126 312h2v2h-2zM178 312h2v2h-2zM262 312h2v2h-2zM318 312h2v2h-2zM346 312h2v14h-2zM40 314h2v2h-2zM44 314h2v2h-2zM48 314h2v6h-2zM52 314h2v14h-2zM60 314h2v14h-2zM64 314h2v10h-2zM68 314h2v2h-2zM176 314h2v2h-2zM192 314h2v2h-2zM212 314h2v2h-2zM316 314h2v2h-2zM320 314h2v2h-2zM324 314h2v2h-2zM328 314h2v2h-2zM332 314h2v2h-2zM336 314h2v2h-2zM340 314h2v2h-2zM344 314h2v2h-2zM42 316h2v2h-2zM178 316h2v12h-2zM40 318h2v2h-2zM44 318h2v2h-2zM68 318h2v2h-2zM176 318h2v2h-2zM192 318h2v2h-2zM212 318h2v2h-2zM316 318h2v2h-2zM320 318h2v2h-2zM324 318h2v2h-2zM328 318h2v2h-2zM332 318h2v2h-2zM336 318h2v2h-2zM340 318h2v2h-2zM344 318h2v2h-2zM42 320h2v10h-2zM70 320h2v2h-2zM210 320h2v12h-2zM342 320h2v2h-2zM40 322h2v2h-2zM48 322h2v2h-2zM68 322h2v2h-2zM176 322h2v2h-2zM316 322h2v2h-2zM320 322h2v2h-2zM324 322h2v2h-2zM328 322h2v2h-2zM332 322h2v2h-2zM336 322h2v2h-2zM340 322h2v2h-2zM344 322h2v2h-2zM70 324h2v2h-2zM48 326h2v2h-2zM64 326h2v2h-2zM68 326h2v2h-2zM180 326h2v2h-2zM208 326h2v2h-2zM316 326h2v2h-2zM324 326h2v2h-2zM328 326h2v2h-2zM332 326h2v2h-2zM336 326h2v2h-2zM340 326h2v2h-2zM182 328h2v14h-2zM40 330h2v2h-2zM52 330h2v2h-2zM180 330h2v2h-2zM208 330h2v2h-2zM206 332h2v6h-2zM180 334h2v2h-2zM204 334h2v2h-2zM208 334h2v2h-2zM180 342h2v2h-2zM208 342h2v2h-2zM30 344h2v2h-2zM210 344h2v4h-2zM180 346h2v2h-2zM178 348h2v4h-2zM176 350h2v2h-2zM212 350h2v2h-2zM214 352h2v4h-2zM176 354h2v2h-2zM94 356h2v2h-2zM174 356h2v6h-2zM52 358h2v2h-2zM92 358h2v2h-2zM172 358h2v2h-2zM216 358h2v2h-2zM218 360h2v8h-2zM350 360h2v2h-2zM172 362h2v2h-2zM216 362h2v2h-2zM348 362h2v2h-2zM170 364h2v6h-2zM72 366h4v2h-4zM168 366h2v2h-2zM74 368h2v62h-2zM72 370h2v2h-2zM168 370h2v2h-2zM220 370h4v2h-4zM324 370h2v2h-2zM328 370h2v2h-2zM70 372h2v10h-2zM78 372h2v26h-2zM166 372h2v6h-2zM222 372h2v2h-2zM314 372h2v2h-2zM326 372h2v10h-2zM330 372h2v30h-2zM60 374h2v2h-2zM68 374h2v2h-2zM72 374h2v2h-2zM76 374h2v2h-2zM164 374h2v2h-2zM324 374h2v2h-2zM328 374h2v2h-2zM66 376h2v22h-2zM82 376h2v4h-2zM86 376h2v2h-2zM322 376h2v6h-2zM332 376h4v4h-4zM60 378h2v2h-2zM64 378h2v2h-2zM68 378h2v2h-2zM72 378h2v6h-2zM76 378h2v18h-2zM80 378h2v2h-2zM84 378h2v2h-2zM164 378h2v2h-2zM224 378h2v2h-2zM320 378h2v2h-2zM324 378h2v2h-2zM328 378h2v2h-2zM62 380h2v2h-2zM162 380h2v4h-2zM226 380h2v2h-2zM334 380h2v2h-2zM64 382h2v2h-2zM68 382h2v2h-2zM80 382h2v2h-2zM160 382h2v2h-2zM320 382h2v2h-2zM324 382h2v2h-2zM328 382h2v2h-2zM332 382h2v2h-2zM82 384h2v2h-2zM322 384h2v2h-2zM326 384h2v2h-2zM334 384h2v10h-2zM20 386h14v2h-14zM64 386h2v2h-2zM68 386h2v2h-2zM72 386h2v2h-2zM80 386h2v2h-2zM120 386h12v2h-12zM320 386h2v2h-2zM324 386h2v2h-2zM328 386h2v2h-2zM332 386h2v2h-2zM336 386h2v2h-2zM6 388h2v2h-2zM10 388h2v2h-2zM14 388h2v2h-2zM18 388h2v2h-2zM22 388h2v2h-2zM26 388h2v2h-2zM30 388h2v2h-2zM34 388h2v2h-2zM38 388h2v10h-2zM42 388h2v6h-2zM46 388h2v2h-2zM50 388h2v6h-2zM54 388h2v2h-2zM58 388h2v2h-2zM62 388h2v2h-2zM70 388h2v40h-2zM82 388h2v2h-2zM86 388h2v2h-2zM90 388h2v2h-2zM94 388h2v2h-2zM98 388h2v2h-2zM102 388h2v2h-2zM106 388h2v2h-2zM110 388h2v2h-2zM114 388h2v2h-2zM118 388h2v2h-2zM122 388h2v2h-2zM126 388h2v2h-2zM130 388h2v2h-2zM134 388h2v2h-2zM138 388h2v2h-2zM282 388h2v2h-2zM286 388h2v2h-2zM290 388h2v2h-2zM294 388h2v2h-2zM318 388h2v2h-2zM322 388h2v6h-2zM326 388h2v10h-2zM342 388h2v2h-2zM346 388h2v2h-2zM350 388h2v2h-2zM354 388h2v2h-2zM358 388h2v2h-2zM362 388h2v2h-2zM366 388h2v2h-2zM370 388h2v2h-2zM374 388h2v2h-2zM378 388h2v2h-2zM4 390h2v2h-2zM8 390h2v2h-2zM12 390h2v2h-2zM16 390h2v2h-2zM20 390h2v2h-2zM24 390h2v2h-2zM28 390h2v2h-2zM32 390h2v2h-2zM36 390h2v2h-2zM40 390h2v2h-2zM44 390h2v2h-2zM48 390h2v2h-2zM52 390h2v2h-2zM56 390h2v2h-2zM60 390h2v2h-2zM64 390h2v2h-2zM68 390h2v2h-2zM72 390h2v6h-2zM80 390h2v2h-2zM84 390h2v2h-2zM88 390h2v2h-2zM92 390h2v2h-2zM96 390h2v2h-2zM100 390h2v2h-2zM104 390h2v2h-2zM108 390h2v2h-2zM112 390h2v2h-2zM116 390h2v2h-2zM120 390h2v2h-2zM124 390h2v2h-2zM128 390h2v2h-2zM132 390h2v2h-2zM136 390h2v2h-2zM140 390h2v2h-2zM276 390h2v2h-2zM280 390h2v2h-2zM284 390h2v2h-2zM288 390h2v2h-2zM292 390h2v2h-2zM296 390h2v2h-2zM300 390h2v2h-2zM304 390h2v2h-2zM308 390h2v2h-2zM312 390h2v2h-2zM316 390h2v2h-2zM320 390h2v2h-2zM324 390h2v2h-2zM328 390h2v2h-2zM332 390h2v2h-2zM336 390h2v2h-2zM340 390h2v2h-2zM344 390h2v2h-2zM348 390h2v2h-2zM352 390h2v2h-2zM356 390h2v2h-2zM360 390h2v2h-2zM364 390h2v2h-2zM368 390h2v2h-2zM372 390h2v2h-2zM376 390h2v2h-2zM380 390h2v2h-2zM2 392h2v2h-2zM6 392h2v2h-2zM10 392h2v2h-2zM14 392h2v2h-2zM18 392h2v2h-2zM22 392h2v2h-2zM26 392h2v2h-2zM30 392h2v2h-2zM34 392h2v2h-2zM46 392h2v2h-2zM54 392h2v2h-2zM58 392h2v2h-2zM82 392h2v2h-2zM94 392h2v2h-2zM98 392h2v2h-2zM110 392h2v2h-2zM114 392h2v2h-2zM118 392h2v2h-2zM122 392h2v2h-2zM126 392h2v2h-2zM130 392h2v2h-2zM134 392h2v2h-2zM138 392h2v2h-2zM142 392h2v2h-2zM318 392h2v2h-2zM362 392h2v2h-2zM4 394h2v2h-2zM8 394h2v2h-2zM12 394h2v2h-2zM16 394h2v2h-2zM20 394h2v2h-2zM24 394h2v2h-2zM28 394h2v2h-2zM32 394h2v2h-2zM36 394h2v2h-2zM40 394h2v2h-2zM44 394h2v2h-2zM48 394h2v2h-2zM52 394h2v2h-2zM56 394h2v2h-2zM60 394h2v2h-2zM64 394h2v2h-2zM68 394h2v2h-2zM80 394h2v2h-2zM84 394h2v2h-2zM88 394h2v2h-2zM92 394h2v2h-2zM96 394h2v2h-2zM100 394h2v2h-2zM104 394h2v2h-2zM108 394h2v2h-2zM112 394h2v2h-2zM116 394h2v2h-2zM120 394h2v2h-2zM124 394h2v2h-2zM128 394h2v2h-2zM132 394h2v2h-2zM136 394h2v2h-2zM140 394h2v2h-2zM272 394h2v2h-2zM276 394h2v2h-2zM280 394h2v2h-2zM284 394h2v2h-2zM288 394h2v2h-2zM292 394h2v2h-2zM296 394h2v2h-2zM300 394h2v2h-2zM304 394h2v2h-2zM308 394h2v2h-2zM312 394h2v2h-2zM316 394h2v2h-2zM320 394h2v2h-2zM324 394h2v2h-2zM328 394h2v2h-2zM332 394h2v2h-2zM336 394h2v2h-2zM340 394h2v2h-2zM344 394h2v2h-2zM348 394h2v2h-2zM352 394h2v2h-2zM356 394h2v2h-2zM360 394h2v2h-2zM364 394h2v2h-2zM368 394h2v2h-2zM372 394h2v2h-2zM376 394h2v2h-2zM380 394h2v2h-2zM384 394h2v2h-2zM6 396h2v2h-2zM10 396h2v2h-2zM18 396h2v2h-2zM22 396h2v2h-2zM26 396h2v2h-2zM30 396h2v2h-2zM46 396h2v2h-2zM62 396h2v2h-2zM82 396h2v2h-2zM98 396h2v2h-2zM114 396h2v2h-2zM126 396h2v2h-2zM138 396h2v2h-2zM318 396h2v2h-2zM322 396h2v2h-2zM334 396h2v18h-2zM338 396h2v2h-2zM4 398h2v2h-2zM8 398h2v2h-2zM12 398h2v2h-2zM16 398h2v2h-2zM20 398h2v2h-2zM24 398h2v2h-2zM28 398h2v2h-2zM32 398h2v2h-2zM36 398h2v2h-2zM40 398h2v2h-2zM44 398h2v2h-2zM48 398h2v2h-2zM52 398h2v2h-2zM56 398h2v2h-2zM60 398h2v2h-2zM68 398h2v2h-2zM72 398h2v2h-2zM76 398h2v6h-2zM80 398h2v2h-2zM84 398h2v2h-2zM88 398h2v2h-2zM92 398h2v2h-2zM96 398h2v2h-2zM100 398h2v2h-2zM104 398h2v2h-2zM108 398h2v2h-2zM112 398h2v2h-2zM116 398h2v2h-2zM120 398h2v2h-2zM124 398h2v2h-2zM128 398h2v2h-2zM132 398h2v2h-2zM136 398h2v2h-2zM140 398h2v2h-2zM272 398h2v2h-2zM276 398h2v2h-2zM280 398h2v2h-2zM284 398h2v2h-2zM288 398h2v2h-2zM292 398h2v2h-2zM296 398h2v2h-2zM300 398h2v2h-2zM304 398h2v2h-2zM308 398h2v2h-2zM312 398h2v2h-2zM316 398h2v2h-2zM320 398h2v2h-2zM324 398h2v2h-2zM328 398h2v2h-2zM332 398h2v2h-2zM340 398h2v2h-2zM344 398h2v2h-2zM348 398h2v2h-2zM352 398h2v2h-2zM356 398h2v2h-2zM360 398h2v2h-2zM364 398h2v2h-2zM368 398h2v2h-2zM372 398h2v2h-2zM376 398h2v2h-2zM380 398h2v2h-2zM10 400h2v2h-2zM14 400h2v2h-2zM18 400h2v2h-2zM22 400h2v2h-2zM26 400h2v2h-2zM34 400h2v2h-2zM38 400h2v2h-2zM58 400h2v2h-2zM66 400h2v10h-2zM78 400h2v26h-2zM106 400h2v2h-2zM118 400h2v2h-2zM122 400h2v2h-2zM126 400h2v2h-2zM130 400h2v2h-2zM134 400h2v2h-2zM314 400h2v2h-2zM322 400h2v2h-2zM326 400h2v2h-2zM342 400h2v2h-2zM366 400h2v2h-2zM12 402h2v2h-2zM16 402h2v2h-2zM20 402h2v2h-2zM24 402h2v2h-2zM28 402h2v2h-2zM32 402h2v2h-2zM36 402h2v2h-2zM40 402h2v2h-2zM44 402h2v2h-2zM48 402h2v2h-2zM52 402h2v2h-2zM56 402h2v2h-2zM64 402h2v2h-2zM68 402h2v2h-2zM72 402h2v2h-2zM80 402h2v2h-2zM92 402h2v2h-2zM100 402h2v2h-2zM104 402h2v2h-2zM108 402h2v2h-2zM112 402h2v2h-2zM116 402h2v2h-2zM120 402h2v2h-2zM124 402h2v2h-2zM128 402h2v2h-2zM132 402h2v2h-2zM284 402h2v2h-2zM288 402h2v2h-2zM292 402h2v2h-2zM296 402h2v2h-2zM300 402h2v2h-2zM304 402h2v2h-2zM308 402h2v2h-2zM312 402h2v2h-2zM320 402h2v2h-2zM324 402h2v2h-2zM328 402h2v6h-2zM332 402h2v6h-2zM336 402h2v2h-2zM344 402h2v2h-2zM348 402h2v2h-2zM352 402h2v2h-2zM356 402h2v2h-2zM360 402h2v2h-2zM364 402h2v2h-2zM22 404h2v2h-2zM30 404h2v2h-2zM54 404h2v2h-2zM82 404h2v2h-2zM94 404h2v2h-2zM110 404h2v2h-2zM114 404h2v2h-2zM118 404h2v2h-2zM122 404h2v2h-2zM310 404h2v2h-2zM318 404h2v2h-2zM322 404h2v4h-2zM326 404h2v10h-2zM330 404h2v10h-2zM338 404h2v2h-2zM32 406h2v2h-2zM36 406h2v2h-2zM40 406h2v2h-2zM48 406h2v2h-2zM64 406h2v2h-2zM68 406h2v6h-2zM72 406h2v6h-2zM76 406h2v6h-2zM80 406h2v6h-2zM96 406h2v2h-2zM100 406h2v2h-2zM104 406h2v2h-2zM108 406h2v2h-2zM112 406h2v2h-2zM116 406h2v2h-2zM304 406h2v2h-2zM316 406h2v2h-2zM320 406h2v2h-2zM324 406h2v2h-2zM336 406h2v2h-2zM352 406h2v2h-2zM42 408h2v2h-2zM82 408h2v2h-2zM40 410h2v2h-2zM64 410h2v2h-2zM104 410h2v2h-2zM316 410h2v2h-2zM320 410h2v2h-2zM324 410h2v2h-2zM328 410h2v2h-2zM332 410h2v2h-2zM336 410h2v2h-2zM62 412h2v2h-2zM66 412h2v12h-2zM82 412h2v2h-2zM322 412h2v2h-2zM64 414h2v2h-2zM68 414h2v2h-2zM72 414h2v2h-2zM76 414h2v2h-2zM80 414h2v6h-2zM84 414h2v2h-2zM316 414h2v2h-2zM320 414h2v2h-2zM324 414h2v2h-2zM328 414h2v2h-2zM332 414h2v2h-2zM336 414h2v2h-2zM340 414h2v2h-2zM62 416h2v2h-2zM82 416h2v2h-2zM322 416h2v4h-2zM326 416h2v12h-2zM330 416h2v6h-2zM334 416h2v6h-2zM64 418h2v2h-2zM68 418h2v2h-2zM72 418h2v2h-2zM76 418h2v2h-2zM84 418h2v2h-2zM316 418h2v2h-2zM324 418h2v2h-2zM328 418h2v2h-2zM332 418h2v2h-2zM62 420h2v2h-2zM68 422h2v2h-2zM72 422h2v2h-2zM76 422h2v2h-2zM84 422h2v2h-2zM324 422h2v2h-2zM328 422h2v2h-2zM332 422h2v2h-2zM314 424h2v2h-2zM330 424h2v4h-2zM68 426h2v2h-2zM72 426h2v2h-2zM76 426h2v2h-2zM208 426h2v2h-2zM312 426h2v2h-2zM328 426h2v2h-2zM332 426h2v2h-2zM208 430h2v2h-2zM182 432h2v2h-2zM208 434h2v2h-2zM182 436h2v2h-2zM196 438h2v2h-2zM50 440h2v2h-2zM98 440h2v2h-2zM194 440h2v10h-2zM198 440h2v34h-2zM48 442h2v2h-2zM192 442h2v2h-2zM196 442h2v2h-2zM190 444h2v4h-2zM192 446h2v2h-2zM196 446h2v2h-2zM200 446h2v2h-2zM36 450h2v2h-2zM192 450h2v2h-2zM196 450h2v2h-2zM200 450h2v2h-2zM336 450h2v2h-2zM70 452h2v2h-2zM186 452h2v2h-2zM190 452h2v2h-2zM194 452h2v2h-2zM202 452h2v2h-2zM206 452h2v2h-2zM326 452h2v2h-2zM338 452h2v2h-2zM52 454h2v2h-2zM68 454h2v2h-2zM188 454h2v2h-2zM192 454h2v2h-2zM196 454h2v2h-2zM200 454h2v2h-2zM204 454h2v2h-2zM236 454h2v2h-2zM240 454h2v2h-2zM336 454h2v2h-2zM340 454h4v2h-4zM42 456h2v8h-2zM54 456h2v60h-2zM66 456h2v2h-2zM146 456h2v2h-2zM150 456h2v2h-2zM154 456h2v2h-2zM158 456h2v2h-2zM162 456h2v2h-2zM166 456h2v2h-2zM170 456h2v2h-2zM174 456h2v2h-2zM178 456h2v2h-2zM190 456h2v10h-2zM194 456h2v2h-2zM202 456h2v10h-2zM210 456h2v2h-2zM214 456h2v2h-2zM218 456h2v2h-2zM222 456h2v2h-2zM226 456h2v2h-2zM238 456h2v2h-2zM242 456h2v2h-2zM246 456h2v2h-2zM250 456h2v2h-2zM326 456h2v2h-2zM334 456h2v6h-2zM338 456h2v2h-2zM342 456h2v26h-2zM350 456h2v2h-2zM52 458h2v2h-2zM56 458h4v2h-4zM144 458h2v2h-2zM148 458h2v2h-2zM152 458h2v2h-2zM156 458h2v2h-2zM160 458h2v2h-2zM164 458h2v2h-2zM168 458h2v2h-2zM172 458h2v2h-2zM176 458h2v2h-2zM180 458h2v2h-2zM184 458h6v2h-6zM192 458h2v2h-2zM196 458h2v2h-2zM200 458h2v2h-2zM204 458h2v2h-2zM208 458h2v2h-2zM212 458h2v2h-2zM216 458h2v2h-2zM220 458h2v2h-2zM224 458h2v2h-2zM228 458h2v2h-2zM232 458h2v2h-2zM236 458h2v2h-2zM240 458h2v2h-2zM244 458h2v2h-2zM248 458h2v2h-2zM332 458h2v2h-2zM336 458h2v2h-2zM340 458h2v2h-2zM50 460h2v54h-2zM58 460h2v54h-2zM66 460h2v2h-2zM142 460h2v2h-2zM162 460h2v2h-2zM166 460h2v2h-2zM170 460h2v2h-2zM174 460h2v2h-2zM178 460h2v2h-2zM182 460h2v2h-2zM186 460h2v2h-2zM194 460h2v22h-2zM206 460h2v2h-2zM210 460h2v2h-2zM214 460h2v2h-2zM218 460h2v2h-2zM222 460h2v2h-2zM226 460h2v2h-2zM246 460h2v2h-2zM250 460h2v2h-2zM338 460h2v54h-2zM48 462h2v2h-2zM52 462h2v2h-2zM56 462h2v2h-2zM60 462h2v2h-2zM140 462h2v2h-2zM144 462h2v2h-2zM148 462h2v2h-2zM152 462h2v2h-2zM156 462h2v2h-2zM160 462h2v2h-2zM164 462h2v2h-2zM168 462h2v2h-2zM172 462h2v2h-2zM176 462h2v2h-2zM180 462h2v2h-2zM184 462h2v2h-2zM188 462h2v2h-2zM192 462h2v2h-2zM196 462h2v2h-2zM200 462h2v2h-2zM204 462h2v2h-2zM208 462h2v2h-2zM212 462h2v2h-2zM216 462h2v2h-2zM220 462h2v2h-2zM224 462h2v2h-2zM228 462h2v2h-2zM232 462h2v2h-2zM236 462h2v2h-2zM240 462h2v2h-2zM244 462h2v2h-2zM248 462h2v2h-2zM336 462h2v2h-2zM340 462h2v2h-2zM66 464h2v2h-2zM154 464h2v2h-2zM170 464h2v2h-2zM178 464h2v2h-2zM186 464h2v2h-2zM222 464h2v2h-2zM234 464h2v2h-2zM242 464h2v2h-2zM334 464h2v6h-2zM44 466h2v2h-2zM48 466h2v2h-2zM52 466h2v2h-2zM56 466h2v2h-2zM60 466h2v2h-2zM64 466h2v2h-2zM144 466h2v2h-2zM148 466h2v2h-2zM152 466h2v2h-2zM156 466h2v2h-2zM160 466h2v2h-2zM164 466h2v2h-2zM168 466h2v2h-2zM172 466h2v2h-2zM176 466h2v2h-2zM180 466h2v2h-2zM184 466h2v2h-2zM188 466h2v2h-2zM192 466h2v2h-2zM196 466h2v2h-2zM200 466h2v2h-2zM204 466h2v2h-2zM208 466h2v2h-2zM212 466h2v2h-2zM216 466h2v2h-2zM220 466h2v2h-2zM224 466h2v2h-2zM228 466h2v2h-2zM232 466h2v2h-2zM236 466h2v2h-2zM240 466h2v2h-2zM332 466h2v2h-2zM336 466h2v2h-2zM340 466h2v2h-2zM344 466h2v2h-2zM46 468h2v14h-2zM62 468h2v6h-2zM162 468h2v2h-2zM182 468h2v2h-2zM190 468h2v2h-2zM202 468h2v18h-2zM346 468h2v2h-2zM44 470h2v2h-2zM48 470h2v2h-2zM52 470h2v2h-2zM56 470h2v2h-2zM60 470h2v2h-2zM156 470h2v2h-2zM160 470h2v2h-2zM164 470h2v2h-2zM168 470h2v2h-2zM172 470h2v2h-2zM176 470h2v2h-2zM180 470h2v2h-2zM188 470h2v2h-2zM192 470h2v2h-2zM196 470h2v2h-2zM200 470h2v2h-2zM204 470h2v2h-2zM212 470h2v2h-2zM216 470h2v2h-2zM220 470h2v2h-2zM224 470h2v2h-2zM332 470h2v2h-2zM336 470h2v2h-2zM340 470h2v2h-2zM344 470h2v2h-2zM190 472h2v2h-2zM334 472h2v2h-2zM346 472h2v4h-2zM366 472h2v2h-2zM370 472h2v2h-2zM374 472h2v2h-2zM44 474h2v2h-2zM48 474h2v2h-2zM52 474h2v2h-2zM56 474h2v2h-2zM60 474h2v2h-2zM188 474h2v2h-2zM192 474h2v2h-2zM196 474h2v2h-2zM200 474h2v2h-2zM204 474h2v2h-2zM328 474h2v2h-2zM332 474h2v2h-2zM336 474h2v2h-2zM340 474h2v2h-2zM344 474h2v2h-2zM348 474h2v2h-2zM352 474h2v2h-2zM356 474h2v2h-2zM360 474h2v2h-2zM364 474h2v2h-2zM368 474h2v2h-2zM372 474h2v2h-2zM376 474h2v2h-2zM380 474h2v2h-2zM6 476h2v2h-2zM10 476h2v2h-2zM14 476h2v2h-2zM18 476h2v2h-2zM22 476h2v2h-2zM26 476h2v2h-2zM30 476h2v2h-2zM34 476h2v2h-2zM38 476h2v2h-2zM42 476h2v2h-2zM62 476h2v6h-2zM66 476h2v2h-2zM70 476h2v2h-2zM74 476h2v2h-2zM78 476h2v2h-2zM82 476h2v2h-2zM86 476h2v2h-2zM102 476h2v2h-2zM186 476h2v2h-2zM190 476h2v10h-2zM198 476h2v6h-2zM206 476h2v2h-2zM294 476h2v2h-2zM298 476h2v2h-2zM302 476h2v2h-2zM306 476h2v2h-2zM310 476h2v2h-2zM314 476h2v6h-2zM318 476h2v2h-2zM322 476h2v6h-2zM326 476h2v2h-2zM334 476h2v6h-2zM350 476h2v2h-2zM354 476h2v2h-2zM358 476h2v2h-2zM362 476h2v6h-2zM366 476h2v4h-2zM370 476h2v2h-2zM374 476h2v2h-2zM378 476h2v2h-2zM382 476h2v2h-2zM386 476h2v2h-2zM4 478h2v2h-2zM8 478h2v2h-2zM12 478h2v2h-2zM16 478h2v2h-2zM20 478h2v2h-2zM24 478h2v2h-2zM28 478h2v2h-2zM32 478h2v2h-2zM36 478h2v2h-2zM40 478h2v2h-2zM44 478h2v2h-2zM48 478h2v2h-2zM52 478h2v2h-2zM56 478h2v2h-2zM60 478h2v2h-2zM64 478h2v2h-2zM68 478h2v2h-2zM72 478h2v2h-2zM76 478h2v2h-2zM80 478h2v2h-2zM84 478h2v2h-2zM88 478h2v2h-2zM92 478h2v2h-2zM96 478h2v2h-2zM100 478h2v2h-2zM184 478h2v2h-2zM188 478h2v2h-2zM192 478h2v2h-2zM196 478h2v2h-2zM200 478h2v2h-2zM292 478h2v2h-2zM296 478h2v2h-2zM300 478h2v2h-2zM304 478h2v2h-2zM308 478h2v2h-2zM312 478h2v2h-2zM316 478h2v2h-2zM320 478h2v2h-2zM324 478h2v2h-2zM328 478h2v2h-2zM332 478h2v2h-2zM336 478h2v2h-2zM340 478h2v2h-2zM344 478h2v2h-2zM348 478h2v2h-2zM352 478h2v2h-2zM356 478h2v2h-2zM360 478h2v2h-2zM364 478h2v2h-2zM368 478h2v2h-2zM372 478h2v2h-2zM376 478h2v2h-2zM380 478h2v2h-2zM384 478h2v2h-2zM388 478h2v2h-2zM6 480h2v2h-2zM26 480h2v2h-2zM34 480h2v2h-2zM38 480h2v2h-2zM74 480h2v2h-2zM170 480h2v2h-2zM298 480h2v2h-2zM310 480h2v2h-2zM330 480h2v2h-2zM354 480h2v2h-2zM370 480h2v2h-2zM378 480h2v2h-2zM4 482h2v2h-2zM8 482h2v2h-2zM12 482h2v2h-2zM16 482h2v2h-2zM20 482h2v2h-2zM24 482h2v2h-2zM28 482h2v2h-2zM32 482h2v2h-2zM36 482h2v2h-2zM40 482h2v2h-2zM44 482h2v2h-2zM48 482h2v2h-2zM52 482h2v2h-2zM56 482h2v2h-2zM60 482h2v2h-2zM64 482h2v2h-2zM68 482h2v2h-2zM72 482h2v2h-2zM76 482h2v2h-2zM80 482h2v2h-2zM84 482h2v2h-2zM88 482h2v2h-2zM92 482h2v2h-2zM96 482h2v2h-2zM100 482h2v2h-2zM104 482h2v2h-2zM168 482h2v2h-2zM192 482h2v2h-2zM196 482h2v2h-2zM200 482h2v2h-2zM292 482h2v2h-2zM296 482h2v2h-2zM300 482h2v2h-2zM304 482h2v2h-2zM308 482h2v2h-2zM312 482h2v2h-2zM316 482h2v2h-2zM320 482h2v2h-2zM324 482h2v2h-2zM328 482h2v2h-2zM332 482h2v2h-2zM336 482h2v2h-2zM340 482h2v2h-2zM344 482h2v2h-2zM348 482h2v2h-2zM352 482h2v2h-2zM356 482h2v2h-2zM360 482h2v2h-2zM364 482h2v2h-2zM368 482h2v2h-2zM372 482h2v2h-2zM376 482h2v2h-2zM380 482h2v2h-2zM384 482h2v2h-2zM62 484h2v2h-2zM194 484h2v12h-2zM198 484h2v14h-2zM310 484h2v2h-2zM342 484h2v30h-2zM350 484h2v2h-2zM12 486h2v2h-2zM16 486h2v2h-2zM20 486h2v2h-2zM24 486h2v2h-2zM28 486h2v2h-2zM32 486h2v2h-2zM36 486h2v2h-2zM40 486h2v2h-2zM44 486h2v2h-2zM48 486h2v2h-2zM52 486h2v6h-2zM56 486h2v6h-2zM60 486h2v2h-2zM64 486h2v2h-2zM68 486h2v2h-2zM72 486h2v2h-2zM76 486h2v2h-2zM80 486h2v2h-2zM84 486h2v2h-2zM88 486h2v2h-2zM92 486h2v2h-2zM96 486h2v2h-2zM192 486h2v2h-2zM196 486h2v2h-2zM200 486h2v2h-2zM304 486h2v2h-2zM308 486h2v2h-2zM312 486h2v2h-2zM316 486h2v2h-2zM320 486h2v2h-2zM324 486h2v2h-2zM328 486h2v2h-2zM332 486h6v2h-6zM340 486h2v2h-2zM344 486h2v2h-2zM352 486h2v2h-2zM356 486h2v2h-2zM360 486h2v2h-2zM364 486h2v2h-2zM368 486h2v2h-2zM372 486h2v2h-2zM38 488h2v2h-2zM46 488h2v14h-2zM62 488h2v14h-2zM70 488h2v2h-2zM322 488h2v2h-2zM330 488h2v2h-2zM334 488h2v2h-2zM346 488h2v2h-2zM28 490h2v2h-2zM32 490h2v2h-2zM36 490h2v2h-2zM44 490h2v2h-2zM48 490h2v2h-2zM60 490h2v2h-2zM64 490h2v2h-2zM72 490h2v2h-2zM76 490h2v2h-2zM80 490h2v2h-2zM192 490h2v2h-2zM196 490h2v2h-2zM200 490h2v2h-2zM320 490h2v2h-2zM328 490h2v2h-2zM332 490h2v2h-2zM336 490h2v2h-2zM340 490h2v2h-2zM344 490h2v6h-2zM30 492h2v2h-2zM66 492h2v18h-2zM78 492h2v2h-2zM334 492h2v2h-2zM346 492h2v2h-2zM350 492h2v6h-2zM28 494h2v2h-2zM44 494h2v2h-2zM48 494h2v2h-2zM52 494h2v2h-2zM56 494h2v6h-2zM60 494h2v6h-2zM64 494h2v2h-2zM196 494h2v2h-2zM332 494h2v2h-2zM336 494h2v2h-2zM340 494h2v2h-2zM348 494h2v2h-2zM22 496h2v2h-2zM42 496h2v6h-2zM326 496h2v2h-2zM334 496h2v10h-2zM40 498h2v2h-2zM44 498h2v2h-2zM48 498h2v2h-2zM52 498h2v2h-2zM64 498h2v2h-2zM332 498h2v2h-2zM336 498h2v2h-2zM340 498h2v2h-2zM344 498h2v6h-2zM348 498h2v2h-2zM326 500h2v2h-2zM350 500h2v2h-2zM40 502h2v2h-2zM44 502h2v2h-2zM48 502h2v2h-2zM52 502h2v2h-2zM56 502h2v2h-2zM60 502h2v6h-2zM64 502h2v2h-2zM332 502h2v2h-2zM336 502h2v2h-2zM340 502h2v2h-2zM348 502h2v2h-2zM42 504h2v8h-2zM46 504h2v2h-2zM326 504h2v4h-2zM350 504h2v2h-2zM40 506h2v2h-2zM48 506h2v2h-2zM52 506h2v2h-2zM56 506h2v6h-2zM64 506h2v2h-2zM336 506h2v2h-2zM340 506h2v2h-2zM344 506h2v2h-2zM348 506h2v2h-2zM40 510h2v2h-2zM48 510h2v2h-2zM52 510h2v2h-2zM336 510h2v2h-2zM340 510h2v2h-2zM52 514h2v2h-2zM56 514h2v2h-2zM340 514h2v2h-2zM358 520h2v2h-2zM318 524h2v2h-2zM32 526h2v2h-2zM316 526h2v2h-2zM360 526h2v2h-2z" fill="#000000"/></svg>