<svg xmlns="http://www.w3.org/2000/svg" viewBox="0 0 784 380" width="784" height="380"><path d="M312 0h48v16h-48zM364 0h4v60h-4zM296 4h16v20h-16zM360 4h4v20h-4zM368 4h16v36h-16zM272 8h24v16h-24zM388 8h52v8h-52zM264 12h8v36h-8zM384 12h4v28h-4zM240 16h24v24h-24zM316 16h4v52h-4zM324 16h4v20h-4zM332 16h4v20h-4zM340 16h4v20h-4zM348 16h12v8h-12zM388 16h28v24h-28zM420 16h4v36h-4zM428 16h4v36h-4zM436 16h4v44h-4zM444 16h4v44h-4zM452 16h4v76h-4zM460 16h4v12h-4zM468 16h4v12h-4zM476 16h4v88h-4zM224 20h16v20h-16zM312 20h4v4h-4zM320 20h4v4h-4zM328 20h4v4h-4zM336 20h4v4h-4zM344 20h4v4h-4zM416 20h4v20h-4zM424 20h4v20h-4zM432 20h4v36h-4zM440 20h4v20h-4zM448 20h4v4h-4zM456 20h4v4h-4zM464 20h4v4h-4zM472 20h4v4h-4zM148 24h4v44h-4zM156 24h4v36h-4zM164 24h4v20h-4zM172 24h52v8h-52zM272 24h8v24h-8zM284 24h4v108h-4zM292 24h4v112h-4zM300 24h4v112h-4zM308 24h4v36h-4zM348 24h4v28h-4zM356 24h4v20h-4zM484 24h4v28h-4zM492 24h4v88h-4zM136 28h12v4h-12zM152 28h4v4h-4zM160 28h4v12h-4zM168 28h4v4h-4zM280 28h4v4h-4zM288 28h4v4h-4zM296 28h4v4h-4zM304 28h4v4h-4zM312 28h4v4h-4zM320 28h4v4h-4zM328 28h4v4h-4zM336 28h4v4h-4zM344 28h4v4h-4zM352 28h4v4h-4zM360 28h4v4h-4zM448 28h4v12h-4zM456 28h4v20h-4zM464 28h4v20h-4zM472 28h4v4h-4zM480 28h4v4h-4zM488 28h4v4h-4zM496 28h16v4h-16zM640 28h4v4h-4zM648 28h8v4h-8zM116 32h4v44h-4zM124 32h4v12h-4zM132 32h4v12h-4zM140 32h4v12h-4zM172 32h4v12h-4zM180 32h4v12h-4zM188 32h4v12h-4zM196 32h4v12h-4zM204 32h4v64h-4zM212 32h12v8h-12zM460 32h4v12h-4zM468 32h4v64h-4zM500 32h12v4h-12zM516 32h4v32h-4zM524 32h4v4h-4zM532 32h4v4h-4zM540 32h4v4h-4zM564 32h4v4h-4zM572 32h4v8h-4zM580 32h4v8h-4zM588 32h4v4h-4zM596 32h4v8h-4zM604 32h4v8h-4zM612 32h4v4h-4zM620 32h4v4h-4zM112 36h4v12h-4zM120 36h4v4h-4zM128 36h4v4h-4zM136 36h4v4h-4zM144 36h4v4h-4zM152 36h4v4h-4zM168 36h4v4h-4zM176 36h4v4h-4zM184 36h4v4h-4zM192 36h4v4h-4zM200 36h4v4h-4zM208 36h4v12h-4zM280 36h4v4h-4zM288 36h4v4h-4zM296 36h4v4h-4zM304 36h4v4h-4zM312 36h4v4h-4zM320 36h4v4h-4zM328 36h4v4h-4zM336 36h4v4h-4zM344 36h4v4h-4zM352 36h4v4h-4zM360 36h4v4h-4zM472 36h4v28h-4zM480 36h4v4h-4zM488 36h4v4h-4zM496 36h4v4h-4zM504 36h4v4h-4zM512 36h4v4h-4zM520 36h4v4h-4zM528 36h4v4h-4zM536 36h4v4h-4zM544 36h4v4h-4zM552 36h4v4h-4zM560 36h4v4h-4zM568 36h4v4h-4zM576 36h4v4h-4zM584 36h4v4h-4zM592 36h4v4h-4zM600 36h4v4h-4zM100 40h12v8h-12zM212 40h4v64h-4zM220 40h12v8h-12zM236 40h4v80h-4zM244 40h4v88h-4zM252 40h4v96h-4zM260 40h4v92h-4zM324 40h4v28h-4zM332 40h4v76h-4zM340 40h4v60h-4zM372 40h4v28h-4zM380 40h4v12h-4zM388 40h4v72h-4zM396 40h12v8h-12zM412 40h4v12h-4zM500 40h4v24h-4zM508 40h4v24h-4zM524 40h4v4h-4zM532 40h4v12h-4zM540 40h4v24h-4zM548 40h4v12h-4zM556 40h4v20h-4zM564 40h4v4h-4zM96 44h4v12h-4zM120 44h4v4h-4zM128 44h4v4h-4zM136 44h4v4h-4zM144 44h4v4h-4zM152 44h4v4h-4zM160 44h4v4h-4zM168 44h4v4h-4zM176 44h4v4h-4zM184 44h4v4h-4zM192 44h4v4h-4zM200 44h4v4h-4zM216 44h4v4h-4zM232 44h4v4h-4zM240 44h4v4h-4zM248 44h4v4h-4zM256 44h4v4h-4zM280 44h4v4h-4zM288 44h4v4h-4zM296 44h4v4h-4zM304 44h4v4h-4zM312 44h4v4h-4zM320 44h4v4h-4zM328 44h4v4h-4zM336 44h4v4h-4zM344 44h4v4h-4zM352 44h4v4h-4zM360 44h4v4h-4zM368 44h4v4h-4zM376 44h4v4h-4zM384 44h4v4h-4zM392 44h4v4h-4zM408 44h4v4h-4zM416 44h4v4h-4zM424 44h4v4h-4zM440 44h4v28h-4zM448 44h4v20h-4zM480 44h4v4h-4zM488 44h4v4h-4zM496 44h4v4h-4zM504 44h4v4h-4zM512 44h4v4h-4zM520 44h4v4h-4zM528 44h4v4h-4zM536 44h4v20h-4zM544 44h4v4h-4zM552 44h4v4h-4zM88 48h8v16h-8zM100 48h4v28h-4zM108 48h4v12h-4zM124 48h4v4h-4zM132 48h4v4h-4zM140 48h4v4h-4zM164 48h4v4h-4zM172 48h4v4h-4zM180 48h4v4h-4zM188 48h4v4h-4zM196 48h4v48h-4zM220 48h4v64h-4zM228 48h4v72h-4zM268 48h4v96h-4zM276 48h4v96h-4zM356 48h4v4h-4zM396 48h4v12h-4zM404 48h4v12h-4zM460 48h4v48h-4zM524 48h4v4h-4zM80 52h8v12h-8zM104 52h4v4h-4zM112 52h4v4h-4zM120 52h4v4h-4zM128 52h4v4h-4zM136 52h4v4h-4zM144 52h4v4h-4zM152 52h4v4h-4zM160 52h4v4h-4zM168 52h4v4h-4zM176 52h4v4h-4zM184 52h4v4h-4zM192 52h4v4h-4zM200 52h4v28h-4zM208 52h4v4h-4zM216 52h4v4h-4zM224 52h4v4h-4zM232 52h4v4h-4zM240 52h4v4h-4zM248 52h4v4h-4zM256 52h4v4h-4zM264 52h4v4h-4zM272 52h4v12h-4zM280 52h4v4h-4zM288 52h4v4h-4zM296 52h4v4h-4zM304 52h4v4h-4zM312 52h4v4h-4zM320 52h4v4h-4zM328 52h4v4h-4zM336 52h4v4h-4zM344 52h4v4h-4zM352 52h4v4h-4zM360 52h4v4h-4zM368 52h4v4h-4zM376 52h4v4h-4zM384 52h4v4h-4zM392 52h4v4h-4zM400 52h4v4h-4zM408 52h4v4h-4zM416 52h4v4h-4zM424 52h4v4h-4zM456 52h4v12h-4zM464 52h4v12h-4zM480 52h4v12h-4zM488 52h4v4h-4zM496 52h4v4h-4zM504 52h4v4h-4zM512 52h4v4h-4zM520 52h4v4h-4zM528 52h4v4h-4zM544 52h4v4h-4zM552 52h4v4h-4zM76 56h4v20h-4zM124 56h4v4h-4zM132 56h4v4h-4zM140 56h4v4h-4zM164 56h4v4h-4zM172 56h4v4h-4zM180 56h4v68h-4zM188 56h4v4h-4zM348 56h4v12h-4zM356 56h4v4h-4zM380 56h4v56h-4zM412 56h4v20h-4zM420 56h4v4h-4zM428 56h4v4h-4zM484 56h4v52h-4zM524 56h4v8h-4zM532 56h4v8h-4zM548 56h4v4h-4zM560 56h8v4h-8zM648 56h24v4h-24zM72 60h4v4h-4zM96 60h4v4h-4zM104 60h4v12h-4zM112 60h4v20h-4zM120 60h4v4h-4zM128 60h4v4h-4zM136 60h4v4h-4zM144 60h4v4h-4zM152 60h4v4h-4zM160 60h4v4h-4zM168 60h4v4h-4zM176 60h4v4h-4zM184 60h4v4h-4zM192 60h4v20h-4zM208 60h4v28h-4zM216 60h4v36h-4zM224 60h4v4h-4zM232 60h4v4h-4zM240 60h4v4h-4zM248 60h4v4h-4zM256 60h4v4h-4zM264 60h4v4h-4zM280 60h4v4h-4zM288 60h4v4h-4zM296 60h4v4h-4zM304 60h4v4h-4zM312 60h4v4h-4zM320 60h4v4h-4zM328 60h4v4h-4zM336 60h4v4h-4zM344 60h4v4h-4zM352 60h4v4h-4zM360 60h4v4h-4zM368 60h4v4h-4zM376 60h4v4h-4zM384 60h4v4h-4zM392 60h4v4h-4zM400 60h4v4h-4zM408 60h4v4h-4zM416 60h4v4h-4zM424 60h4v4h-4zM432 60h4v4h-4zM488 60h4v12h-4zM496 60h4v4h-4zM504 60h4v4h-4zM512 60h4v4h-4zM520 60h4v4h-4zM528 60h4v4h-4zM544 60h4v4h-4zM668 60h20v4h-20zM68 64h4v44h-4zM84 64h4v12h-4zM92 64h4v20h-4zM108 64h4v12h-4zM124 64h4v4h-4zM132 64h4v4h-4zM140 64h4v4h-4zM156 64h4v4h-4zM164 64h4v36h-4zM172 64h4v4h-4zM188 64h4v12h-4zM308 64h4v76h-4zM356 64h4v4h-4zM364 64h4v4h-4zM396 64h4v4h-4zM404 64h4v12h-4zM420 64h4v4h-4zM428 64h4v4h-4zM436 64h4v24h-4zM696 64h8v4h-8zM64 68h4v4h-4zM72 68h4v4h-4zM80 68h4v4h-4zM88 68h4v4h-4zM96 68h4v4h-4zM120 68h4v4h-4zM128 68h4v4h-4zM136 68h4v4h-4zM144 68h4v4h-4zM152 68h4v4h-4zM160 68h4v4h-4zM168 68h4v4h-4zM176 68h4v4h-4zM184 68h4v4h-4zM224 68h4v48h-4zM232 68h4v36h-4zM240 68h4v36h-4zM248 68h4v64h-4zM256 68h4v4h-4zM264 68h4v4h-4zM272 68h4v4h-4zM280 68h4v4h-4zM288 68h4v20h-4zM296 68h4v4h-4zM304 68h4v4h-4zM312 68h4v4h-4zM320 68h4v4h-4zM328 68h4v4h-4zM336 68h4v4h-4zM344 68h4v4h-4zM352 68h4v4h-4zM360 68h4v4h-4zM368 68h4v4h-4zM376 68h4v4h-4zM384 68h4v4h-4zM392 68h4v4h-4zM400 68h4v4h-4zM408 68h4v4h-4zM416 68h4v4h-4zM424 68h4v4h-4zM432 68h4v4h-4zM444 68h8v4h-8zM456 68h4v12h-4zM464 68h4v4h-4zM472 68h4v4h-4zM480 68h4v4h-4zM496 68h16v4h-16zM700 68h12v4h-12zM60 72h4v28h-4zM124 72h4v4h-4zM132 72h4v4h-4zM140 72h4v12h-4zM148 72h4v4h-4zM156 72h4v4h-4zM172 72h4v60h-4zM316 72h4v72h-4zM324 72h4v72h-4zM348 72h4v28h-4zM356 72h4v44h-4zM364 72h4v44h-4zM372 72h4v60h-4zM396 72h4v40h-4zM420 72h4v4h-4zM428 72h4v4h-4zM444 72h4v16h-4zM500 72h4v40h-4zM508 72h4v40h-4zM516 72h4v48h-4zM524 72h4v48h-4zM532 72h4v28h-4zM540 72h4v28h-4zM712 72h8v4h-8zM56 76h4v4h-4zM64 76h4v4h-4zM72 76h4v4h-4zM80 76h4v4h-4zM88 76h4v4h-4zM96 76h4v4h-4zM104 76h4v4h-4zM120 76h4v4h-4zM128 76h4v4h-4zM136 76h4v4h-4zM144 76h4v12h-4zM152 76h4v4h-4zM160 76h4v4h-4zM168 76h4v4h-4zM176 76h4v4h-4zM184 76h4v4h-4zM256 76h4v52h-4zM264 76h4v28h-4zM272 76h4v4h-4zM280 76h4v4h-4zM296 76h4v12h-4zM304 76h4v4h-4zM312 76h4v4h-4zM320 76h4v4h-4zM328 76h4v4h-4zM336 76h4v4h-4zM344 76h4v4h-4zM352 76h4v4h-4zM360 76h4v4h-4zM368 76h4v4h-4zM376 76h4v4h-4zM384 76h4v4h-4zM392 76h4v4h-4zM400 76h4v4h-4zM408 76h4v4h-4zM416 76h4v4h-4zM424 76h4v8h-4zM432 76h4v4h-4zM440 76h4v12h-4zM448 76h4v16h-4zM464 76h4v12h-4zM472 76h4v28h-4zM480 76h4v28h-4zM488 76h4v12h-4zM496 76h4v12h-4zM504 76h4v20h-4zM512 76h4v20h-4zM520 76h4v20h-4zM528 76h4v4h-4zM536 76h4v12h-4zM544 76h12v12h-12zM716 76h12v4h-12zM76 80h4v4h-4zM84 80h4v4h-4zM100 80h4v4h-4zM108 80h4v4h-4zM116 80h4v4h-4zM124 80h4v4h-4zM132 80h4v36h-4zM148 80h4v36h-4zM156 80h4v60h-4zM188 80h4v12h-4zM404 80h4v20h-4zM412 80h4v4h-4zM420 80h4v4h-4zM428 80h4v4h-4zM556 80h12v8h-12zM572 80h4v12h-4zM728 80h4v8h-4zM56 84h4v12h-4zM64 84h4v4h-4zM72 84h4v4h-4zM80 84h4v4h-4zM88 84h4v4h-4zM96 84h4v4h-4zM104 84h4v4h-4zM112 84h4v4h-4zM120 84h4v4h-4zM128 84h4v4h-4zM136 84h4v4h-4zM152 84h4v20h-4zM160 84h4v4h-4zM168 84h4v4h-4zM176 84h4v12h-4zM184 84h4v20h-4zM192 84h4v4h-4zM200 84h4v12h-4zM272 84h4v4h-4zM280 84h4v48h-4zM304 84h4v20h-4zM312 84h4v4h-4zM320 84h4v4h-4zM328 84h4v4h-4zM336 84h4v4h-4zM344 84h4v4h-4zM352 84h4v4h-4zM360 84h4v4h-4zM368 84h4v4h-4zM376 84h4v4h-4zM384 84h4v4h-4zM392 84h4v4h-4zM400 84h4v4h-4zM408 84h4v4h-4zM416 84h4v4h-4zM456 84h4v12h-4zM528 84h4v12h-4zM568 84h4v12h-4zM576 84h8v12h-8zM732 84h4v4h-4zM48 88h8v8h-8zM76 88h4v4h-4zM84 88h4v4h-4zM92 88h4v4h-4zM100 88h4v4h-4zM108 88h4v36h-4zM116 88h4v4h-4zM124 88h4v4h-4zM140 88h4v4h-4zM412 88h4v24h-4zM548 88h4v28h-4zM556 88h4v28h-4zM564 88h4v28h-4zM584 88h8v8h-8zM64 92h4v12h-4zM72 92h4v4h-4zM80 92h4v4h-4zM88 92h4v4h-4zM96 92h4v4h-4zM104 92h4v4h-4zM112 92h4v4h-4zM120 92h4v4h-4zM128 92h4v4h-4zM136 92h4v4h-4zM144 92h4v20h-4zM160 92h4v4h-4zM168 92h4v12h-4zM192 92h4v4h-4zM208 92h4v4h-4zM272 92h4v12h-4zM288 92h4v44h-4zM296 92h4v36h-4zM312 92h4v12h-4zM320 92h4v4h-4zM328 92h4v4h-4zM336 92h4v4h-4zM344 92h4v4h-4zM352 92h4v4h-4zM360 92h4v4h-4zM368 92h4v4h-4zM376 92h4v4h-4zM384 92h4v12h-4zM392 92h4v4h-4zM400 92h4v12h-4zM408 92h4v4h-4zM464 92h4v4h-4zM488 92h4v4h-4zM496 92h4v4h-4zM536 92h4v4h-4zM544 92h4v4h-4zM552 92h4v4h-4zM560 92h4v4h-4zM592 92h8v4h-8zM736 92h8v4h-8zM44 96h4v28h-4zM52 96h4v4h-4zM76 96h4v4h-4zM84 96h4v4h-4zM92 96h4v4h-4zM100 96h4v4h-4zM116 96h4v40h-4zM124 96h4v12h-4zM140 96h4v12h-4zM188 96h4v12h-4zM420 96h4v16h-4zM572 96h4v24h-4zM580 96h4v12h-4zM588 96h4v12h-4zM596 96h4v20h-4zM744 96h8v8h-8zM48 100h4v4h-4zM56 100h4v4h-4zM72 100h4v4h-4zM80 100h4v4h-4zM88 100h4v4h-4zM96 100h4v4h-4zM104 100h4v4h-4zM112 100h4v4h-4zM120 100h4v4h-4zM128 100h4v4h-4zM136 100h4v4h-4zM160 100h4v12h-4zM176 100h4v12h-4zM216 100h4v8h-4zM320 100h4v4h-4zM328 100h4v4h-4zM336 100h4v4h-4zM344 100h4v16h-4zM352 100h4v4h-4zM360 100h4v4h-4zM368 100h4v4h-4zM376 100h4v4h-4zM392 100h4v4h-4zM408 100h4v4h-4zM416 100h4v4h-4zM424 100h8v4h-8zM488 100h4v4h-4zM496 100h4v4h-4zM504 100h4v4h-4zM512 100h4v4h-4zM520 100h4v4h-4zM528 100h4v12h-4zM536 100h4v4h-4zM544 100h4v4h-4zM552 100h4v4h-4zM560 100h4v4h-4zM568 100h4v4h-4zM576 100h4v4h-4zM584 100h4v4h-4zM592 100h4v4h-4zM600 100h8v4h-8zM52 104h4v4h-4zM60 104h4v4h-4zM76 104h4v28h-4zM84 104h4v12h-4zM92 104h4v4h-4zM100 104h4v4h-4zM192 104h8v8h-8zM340 104h4v8h-4zM348 104h4v12h-4zM404 104h4v8h-4zM428 104h4v24h-4zM436 104h12v4h-12zM452 104h4v8h-4zM460 104h4v8h-4zM532 104h4v16h-4zM540 104h4v16h-4zM604 104h4v4h-4zM40 108h4v4h-4zM48 108h4v4h-4zM56 108h4v4h-4zM64 108h4v4h-4zM72 108h4v4h-4zM80 108h4v12h-4zM88 108h4v4h-4zM96 108h4v4h-4zM104 108h4v4h-4zM112 108h4v4h-4zM120 108h4v28h-4zM128 108h4v4h-4zM136 108h4v4h-4zM152 108h4v20h-4zM164 108h8v8h-8zM184 108h4v20h-4zM232 108h4v4h-4zM240 108h4v20h-4zM264 108h4v28h-4zM272 108h4v20h-4zM304 108h4v12h-4zM312 108h4v28h-4zM320 108h4v20h-4zM328 108h4v4h-4zM336 108h4v4h-4zM352 108h4v8h-4zM360 108h4v8h-4zM368 108h4v8h-4zM376 108h4v12h-4zM384 108h4v4h-4zM392 108h4v4h-4zM400 108h4v4h-4zM408 108h4v4h-4zM416 108h4v4h-4zM424 108h4v4h-4zM432 108h8v4h-8zM456 108h4v4h-4zM464 108h8v8h-8zM496 108h4v4h-4zM504 108h4v4h-4zM512 108h4v4h-4zM520 108h4v4h-4zM536 108h4v4h-4zM544 108h4v4h-4zM552 108h4v4h-4zM560 108h4v12h-4zM568 108h4v4h-4zM576 108h4v4h-4zM584 108h4v4h-4zM592 108h4v4h-4zM600 108h4v4h-4zM752 108h8v4h-8zM52 112h4v4h-4zM60 112h4v4h-4zM68 112h4v4h-4zM92 112h4v140h-4zM100 112h4v52h-4zM124 112h4v36h-4zM140 112h4v4h-4zM188 112h4v28h-4zM196 112h4v4h-4zM476 112h4v8h-4zM484 112h4v8h-4zM580 112h4v8h-4zM588 112h4v8h-4zM40 116h4v4h-4zM48 116h4v4h-4zM56 116h4v4h-4zM64 116h4v4h-4zM72 116h4v4h-4zM88 116h4v4h-4zM96 116h4v4h-4zM104 116h4v4h-4zM112 116h4v4h-4zM128 116h4v4h-4zM144 116h4v4h-4zM160 116h4v4h-4zM168 116h4v4h-4zM176 116h4v4h-4zM192 116h4v4h-4zM200 116h8v4h-8zM232 116h4v4h-4zM328 116h4v4h-4zM380 116h4v12h-4zM400 116h28v4h-28zM480 116h4v4h-4zM488 116h8v4h-8zM520 116h4v4h-4zM528 116h4v4h-4zM536 116h4v4h-4zM544 116h4v4h-4zM552 116h4v4h-4zM568 116h4v4h-4zM576 116h4v4h-4zM584 116h4v4h-4zM592 116h4v8h-4zM760 116h4v4h-4zM36 120h4v36h-4zM52 120h4v4h-4zM60 120h4v4h-4zM68 120h4v4h-4zM84 120h4v12h-4zM148 120h4v12h-4zM164 120h4v28h-4zM196 120h4v20h-4zM204 120h4v36h-4zM332 120h4v20h-4zM340 120h4v12h-4zM348 120h4v12h-4zM356 120h4v12h-4zM364 120h4v12h-4zM388 120h4v8h-4zM396 120h4v8h-4zM404 120h4v12h-4zM412 120h4v8h-4zM420 120h4v4h-4zM436 120h4v4h-4zM500 120h4v8h-4zM596 120h4v4h-4zM604 120h4v8h-4zM764 120h4v8h-4zM32 124h4v4h-4zM40 124h4v4h-4zM48 124h4v4h-4zM56 124h4v4h-4zM64 124h4v4h-4zM72 124h4v4h-4zM80 124h4v4h-4zM88 124h4v4h-4zM96 124h4v4h-4zM104 124h4v4h-4zM112 124h4v12h-4zM128 124h8v4h-8zM160 124h4v12h-4zM168 124h4v4h-4zM176 124h4v4h-4zM192 124h4v4h-4zM200 124h4v12h-4zM304 124h4v16h-4zM328 124h4v4h-4zM336 124h4v4h-4zM344 124h4v4h-4zM352 124h4v20h-4zM360 124h4v4h-4zM368 124h4v4h-4zM376 124h4v4h-4zM384 124h4v4h-4zM392 124h4v4h-4zM400 124h4v4h-4zM408 124h4v4h-4zM416 124h4v4h-4zM424 124h4v4h-4zM432 124h4v8h-4zM496 124h4v4h-4zM600 124h4v4h-4zM608 124h8v4h-8zM44 128h4v4h-4zM52 128h4v4h-4zM60 128h4v4h-4zM68 128h4v4h-4zM108 128h4v12h-4zM132 128h12v8h-12zM180 128h4v12h-4zM208 128h4v8h-4zM436 128h4v4h-4zM444 128h4v8h-4zM452 128h4v4h-4zM504 128h8v4h-8zM624 128h8v4h-8zM32 132h4v4h-4zM40 132h4v4h-4zM48 132h4v4h-4zM56 132h4v4h-4zM64 132h4v4h-4zM72 132h4v4h-4zM80 132h4v4h-4zM88 132h4v4h-4zM96 132h4v28h-4zM104 132h4v4h-4zM128 132h4v12h-4zM144 132h4v4h-4zM152 132h4v4h-4zM168 132h4v20h-4zM176 132h4v20h-4zM184 132h4v4h-4zM192 132h4v4h-4zM256 132h4v4h-4zM272 132h4v12h-4zM296 132h4v4h-4zM320 132h4v12h-4zM328 132h4v12h-4zM336 132h4v16h-4zM344 132h4v16h-4zM360 132h4v12h-4zM368 132h4v8h-4zM376 132h4v8h-4zM384 132h4v4h-4zM392 132h4v4h-4zM400 132h4v4h-4zM408 132h4v4h-4zM440 132h4v4h-4zM448 132h4v4h-4zM456 132h8v8h-8zM508 132h8v4h-8zM628 132h12v4h-12zM768 132h4v4h-4zM28 136h4v52h-4zM44 136h4v4h-4zM52 136h4v4h-4zM60 136h4v4h-4zM68 136h4v4h-4zM76 136h4v4h-4zM84 136h4v68h-4zM132 136h4v20h-4zM140 136h4v76h-4zM148 136h4v28h-4zM172 136h4v20h-4zM284 136h4v16h-4zM340 136h4v4h-4zM348 136h4v4h-4zM356 136h4v16h-4zM364 136h4v16h-4zM372 136h4v4h-4zM380 136h4v4h-4zM420 136h4v8h-4zM428 136h4v4h-4zM468 136h4v8h-4zM524 136h4v4h-4zM648 136h8v4h-8zM772 136h4v8h-4zM24 140h4v4h-4zM32 140h4v4h-4zM40 140h4v4h-4zM48 140h4v4h-4zM56 140h4v4h-4zM64 140h4v4h-4zM72 140h4v4h-4zM80 140h4v4h-4zM88 140h4v4h-4zM104 140h4v20h-4zM120 140h4v4h-4zM136 140h4v12h-4zM144 140h4v4h-4zM152 140h4v4h-4zM160 140h4v4h-4zM184 140h4v4h-4zM192 140h4v4h-4zM200 140h4v4h-4zM208 140h8v4h-8zM264 140h4v4h-4zM280 140h4v4h-4zM424 140h4v4h-4zM432 140h8v8h-8zM460 140h8v4h-8zM472 140h8v4h-8zM520 140h4v4h-4zM652 140h12v4h-12zM44 144h4v4h-4zM52 144h4v4h-4zM60 144h4v4h-4zM68 144h4v4h-4zM76 144h4v4h-4zM108 144h4v24h-4zM156 144h4v24h-4zM180 144h4v44h-4zM212 144h4v4h-4zM288 144h8v4h-8zM300 144h4v8h-4zM340 144h4v4h-4zM348 144h4v8h-4zM372 144h4v8h-4zM380 144h4v8h-4zM388 144h4v4h-4zM444 144h4v8h-4zM476 144h4v4h-4zM484 144h4v8h-4zM492 144h4v4h-4zM532 144h4v8h-4zM664 144h8v4h-8zM24 148h4v4h-4zM32 148h4v12h-4zM40 148h4v4h-4zM48 148h4v4h-4zM56 148h4v4h-4zM64 148h4v4h-4zM72 148h4v4h-4zM80 148h4v4h-4zM88 148h4v4h-4zM112 148h12v4h-12zM128 148h4v4h-4zM144 148h4v4h-4zM152 148h4v4h-4zM160 148h4v12h-4zM184 148h4v4h-4zM200 148h4v4h-4zM208 148h4v12h-4zM280 148h4v4h-4zM288 148h4v8h-4zM304 148h4v4h-4zM352 148h4v4h-4zM360 148h4v4h-4zM368 148h4v4h-4zM376 148h4v4h-4zM384 148h4v4h-4zM392 148h4v8h-4zM400 148h4v4h-4zM436 148h8v4h-8zM448 148h4v8h-4zM480 148h4v4h-4zM488 148h4v4h-4zM668 148h4v4h-4zM44 152h4v12h-4zM52 152h4v12h-4zM60 152h4v4h-4zM68 152h4v4h-4zM76 152h4v76h-4zM116 152h4v4h-4zM124 152h4v44h-4zM188 152h4v4h-4zM212 152h8v8h-8zM292 152h4v4h-4zM308 152h12v4h-12zM324 152h4v8h-4zM396 152h4v4h-4zM404 152h4v4h-4zM412 152h4v4h-4zM452 152h4v8h-4zM460 152h4v8h-4zM492 152h4v8h-4zM500 152h4v4h-4zM680 152h4v8h-4zM776 152h4v8h-4zM24 156h4v4h-4zM40 156h4v4h-4zM48 156h4v4h-4zM56 156h4v12h-4zM64 156h4v4h-4zM72 156h4v4h-4zM80 156h4v4h-4zM88 156h4v4h-4zM112 156h4v12h-4zM120 156h4v4h-4zM128 156h4v4h-4zM136 156h4v4h-4zM144 156h4v4h-4zM152 156h4v12h-4zM164 156h8v4h-8zM176 156h4v4h-4zM184 156h4v4h-4zM200 156h4v4h-4zM296 156h4v4h-4zM304 156h4v8h-4zM320 156h4v4h-4zM328 156h4v4h-4zM408 156h4v4h-4zM456 156h4v4h-4zM464 156h4v4h-4zM488 156h4v4h-4zM496 156h4v8h-4zM504 156h8v4h-8zM684 156h4v4h-4zM36 160h4v4h-4zM60 160h4v12h-4zM68 160h4v4h-4zM116 160h4v12h-4zM132 160h4v4h-4zM164 160h4v4h-4zM172 160h4v4h-4zM188 160h8v8h-8zM204 160h4v4h-4zM212 160h4v28h-4zM220 160h4v12h-4zM308 160h4v8h-4zM340 160h4v8h-4zM348 160h4v8h-4zM416 160h8v4h-8zM428 160h4v4h-4zM468 160h4v8h-4zM476 160h4v4h-4zM500 160h4v12h-4zM508 160h4v4h-4zM516 160h4v4h-4zM24 164h4v4h-4zM32 164h4v4h-4zM40 164h4v4h-4zM48 164h4v4h-4zM64 164h4v4h-4zM72 164h4v4h-4zM80 164h4v4h-4zM88 164h4v20h-4zM96 164h4v4h-4zM104 164h4v4h-4zM120 164h4v12h-4zM128 164h4v4h-4zM136 164h4v4h-4zM144 164h4v4h-4zM160 164h4v4h-4zM168 164h4v4h-4zM176 164h4v4h-4zM184 164h4v12h-4zM208 164h4v4h-4zM216 164h4v4h-4zM312 164h4v4h-4zM344 164h4v4h-4zM352 164h4v4h-4zM420 164h8v4h-8zM432 164h8v8h-8zM464 164h4v4h-4zM472 164h4v4h-4zM480 164h4v4h-4zM504 164h4v4h-4zM512 164h4v4h-4zM520 164h8v4h-8zM688 164h8v4h-8zM776 164h4v12h-4zM20 168h4v44h-4zM36 168h4v4h-4zM44 168h4v4h-4zM52 168h4v4h-4zM68 168h4v12h-4zM132 168h4v16h-4zM148 168h4v4h-4zM164 168h4v20h-4zM172 168h4v36h-4zM188 168h4v20h-4zM196 168h4v12h-4zM324 168h4v8h-4zM360 168h8v4h-8zM372 168h4v8h-4zM380 168h4v8h-4zM444 168h4v8h-4zM484 168h4v8h-4zM492 168h4v8h-4zM508 168h4v4h-4zM516 168h4v8h-4zM524 168h4v4h-4zM532 168h4v4h-4zM780 168h4v20h-4zM24 172h4v4h-4zM32 172h4v4h-4zM40 172h4v4h-4zM48 172h4v4h-4zM56 172h4v4h-4zM64 172h4v4h-4zM72 172h4v4h-4zM80 172h4v4h-4zM96 172h4v4h-4zM112 172h4v4h-4zM128 172h4v12h-4zM136 172h4v4h-4zM144 172h4v4h-4zM160 172h4v4h-4zM168 172h4v12h-4zM176 172h4v4h-4zM192 172h4v4h-4zM208 172h4v4h-4zM216 172h4v12h-4zM328 172h4v4h-4zM368 172h4v4h-4zM376 172h4v4h-4zM384 172h8v4h-8zM436 172h8v4h-8zM448 172h4v8h-4zM488 172h4v4h-4zM496 172h4v4h-4zM504 172h4v4h-4zM520 172h4v4h-4zM528 172h4v4h-4zM696 172h8v4h-8zM36 176h4v4h-4zM44 176h4v4h-4zM52 176h4v4h-4zM60 176h4v4h-4zM148 176h4v60h-4zM220 176h4v68h-4zM340 176h4v8h-4zM396 176h4v8h-4zM452 176h4v8h-4zM460 176h4v4h-4zM500 176h4v8h-4zM508 176h4v4h-4zM532 176h4v4h-4zM700 176h4v8h-4zM24 180h4v4h-4zM32 180h4v4h-4zM40 180h4v4h-4zM48 180h4v4h-4zM56 180h4v4h-4zM64 180h4v4h-4zM72 180h4v4h-4zM80 180h4v4h-4zM96 180h8v20h-8zM120 180h4v4h-4zM136 180h4v12h-4zM144 180h4v4h-4zM160 180h4v4h-4zM176 180h4v4h-4zM184 180h4v12h-4zM192 180h4v4h-4zM208 180h4v4h-4zM344 180h4v4h-4zM456 180h4v4h-4zM464 180h8v8h-8zM496 180h4v4h-4zM504 180h4v8h-4zM512 180h4v4h-4zM536 180h4v4h-4zM776 180h4v4h-4zM36 184h4v4h-4zM44 184h4v4h-4zM52 184h4v4h-4zM60 184h4v4h-4zM68 184h4v4h-4zM108 184h4v4h-4zM116 184h4v28h-4zM196 184h8v8h-8zM356 184h4v8h-4zM412 184h4v8h-4zM476 184h4v4h-4zM508 184h4v8h-4zM516 184h4v4h-4zM24 188h4v4h-4zM32 188h4v4h-4zM40 188h4v4h-4zM48 188h4v4h-4zM56 188h4v4h-4zM64 188h4v4h-4zM72 188h4v4h-4zM80 188h4v4h-4zM88 188h4v36h-4zM104 188h4v4h-4zM112 188h4v4h-4zM120 188h4v4h-4zM144 188h4v4h-4zM160 188h4v4h-4zM168 188h4v20h-4zM176 188h4v12h-4zM192 188h4v4h-4zM208 188h4v4h-4zM216 188h4v4h-4zM224 188h4v4h-4zM360 188h4v4h-4zM408 188h4v4h-4zM468 188h8v4h-8zM480 188h8v4h-8zM512 188h4v4h-4zM520 188h4v4h-4zM704 188h4v4h-4zM776 188h4v20h-4zM28 192h4v4h-4zM36 192h4v20h-4zM44 192h4v4h-4zM52 192h4v4h-4zM60 192h4v4h-4zM68 192h4v4h-4zM108 192h4v12h-4zM132 192h4v4h-4zM164 192h4v8h-4zM180 192h4v4h-4zM188 192h4v12h-4zM196 192h4v28h-4zM372 192h4v8h-4zM416 192h8v4h-8zM428 192h4v4h-4zM484 192h4v8h-4zM492 192h4v4h-4zM524 192h4v8h-4zM532 192h4v12h-4zM708 192h4v16h-4zM24 196h4v4h-4zM32 196h4v4h-4zM40 196h4v4h-4zM48 196h4v4h-4zM56 196h4v4h-4zM64 196h4v4h-4zM72 196h4v4h-4zM80 196h4v4h-4zM104 196h4v12h-4zM112 196h4v12h-4zM120 196h4v4h-4zM128 196h4v4h-4zM136 196h4v4h-4zM144 196h4v4h-4zM152 196h4v4h-4zM184 196h4v4h-4zM192 196h4v4h-4zM200 196h4v4h-4zM216 196h4v4h-4zM224 196h4v4h-4zM424 196h4v4h-4zM480 196h4v4h-4zM488 196h4v4h-4zM520 196h4v4h-4zM528 196h4v8h-4zM536 196h8v4h-8zM28 200h4v20h-4zM44 200h4v4h-4zM52 200h4v12h-4zM60 200h4v12h-4zM68 200h4v4h-4zM100 200h4v4h-4zM124 200h4v12h-4zM132 200h4v4h-4zM156 200h4v12h-4zM180 200h4v20h-4zM376 200h8v4h-8zM432 200h8v4h-8zM500 200h4v8h-4zM540 200h4v8h-4zM548 200h4v4h-4zM16 204h4v4h-4zM24 204h4v4h-4zM32 204h4v4h-4zM40 204h4v4h-4zM48 204h4v4h-4zM56 204h4v4h-4zM64 204h4v4h-4zM72 204h4v4h-4zM80 204h4v4h-4zM96 204h4v4h-4zM120 204h4v4h-4zM128 204h4v4h-4zM136 204h4v12h-4zM144 204h4v4h-4zM152 204h4v4h-4zM176 204h4v4h-4zM184 204h4v4h-4zM192 204h4v4h-4zM200 204h4v4h-4zM216 204h4v4h-4zM224 204h4v4h-4zM380 204h12v4h-12zM436 204h8v4h-8zM496 204h4v4h-4zM504 204h8v8h-8zM536 204h4v4h-4zM544 204h4v4h-4zM44 208h4v4h-4zM68 208h4v4h-4zM84 208h4v28h-4zM132 208h4v4h-4zM172 208h4v52h-4zM188 208h4v4h-4zM204 208h4v28h-4zM452 208h4v8h-4zM516 208h4v4h-4zM556 208h4v8h-4zM772 208h4v12h-4zM24 212h4v4h-4zM32 212h4v4h-4zM40 212h4v4h-4zM48 212h4v4h-4zM56 212h4v4h-4zM64 212h4v4h-4zM72 212h4v4h-4zM80 212h4v4h-4zM96 212h4v4h-4zM120 212h4v4h-4zM128 212h4v4h-4zM144 212h4v4h-4zM152 212h4v12h-4zM160 212h4v4h-4zM168 212h4v4h-4zM176 212h4v4h-4zM184 212h4v4h-4zM192 212h4v4h-4zM200 212h4v4h-4zM216 212h4v4h-4zM224 212h4v4h-4zM392 212h4v4h-4zM456 212h8v8h-8zM508 212h8v4h-8zM520 212h4v4h-4zM36 216h4v4h-4zM44 216h4v4h-4zM52 216h4v12h-4zM60 216h4v12h-4zM68 216h4v12h-4zM140 216h4v4h-4zM156 216h4v28h-4zM404 216h4v8h-4zM468 216h4v8h-4zM516 216h4v4h-4zM524 216h4v8h-4zM532 216h4v4h-4zM708 216h4v16h-4zM768 216h4v8h-4zM24 220h4v8h-4zM32 220h4v12h-4zM40 220h4v4h-4zM48 220h4v4h-4zM56 220h4v4h-4zM64 220h4v4h-4zM72 220h4v4h-4zM80 220h4v4h-4zM96 220h4v4h-4zM144 220h4v12h-4zM160 220h4v12h-4zM168 220h4v4h-4zM176 220h4v4h-4zM184 220h4v12h-4zM192 220h4v4h-4zM200 220h4v28h-4zM216 220h4v4h-4zM224 220h4v4h-4zM464 220h4v4h-4zM520 220h4v4h-4zM528 220h4v4h-4zM28 224h4v8h-4zM36 224h4v4h-4zM44 224h4v4h-4zM164 224h4v52h-4zM180 224h4v32h-4zM196 224h4v20h-4zM408 224h8v4h-8zM476 224h4v8h-4zM532 224h4v8h-4zM540 224h4v4h-4zM40 228h4v4h-4zM48 228h4v4h-4zM56 228h4v4h-4zM64 228h4v4h-4zM72 228h4v4h-4zM80 228h4v4h-4zM88 228h4v4h-4zM96 228h8v4h-8zM152 228h4v4h-4zM168 228h4v20h-4zM176 228h4v4h-4zM188 228h8v4h-8zM216 228h4v12h-4zM224 228h4v4h-4zM412 228h8v4h-8zM480 228h8v4h-8zM536 228h4v4h-4zM544 228h4v4h-4zM704 228h4v12h-4zM36 232h4v4h-4zM44 232h4v4h-4zM52 232h4v4h-4zM60 232h4v4h-4zM68 232h4v4h-4zM76 232h4v4h-4zM100 232h4v28h-4zM108 232h4v4h-4zM188 232h4v20h-4zM428 232h4v4h-4zM484 232h4v4h-4zM548 232h4v8h-4zM556 232h4v4h-4zM764 232h4v4h-4zM32 236h4v4h-4zM40 236h4v4h-4zM48 236h4v4h-4zM56 236h4v4h-4zM64 236h4v4h-4zM72 236h4v4h-4zM80 236h4v4h-4zM88 236h4v4h-4zM96 236h4v4h-4zM104 236h4v12h-4zM144 236h4v4h-4zM152 236h4v4h-4zM160 236h4v4h-4zM176 236h4v12h-4zM184 236h4v4h-4zM424 236h4v4h-4zM488 236h8v4h-8zM544 236h4v4h-4zM552 236h4v8h-4zM560 236h8v4h-8zM760 236h4v4h-4zM36 240h4v8h-4zM44 240h4v4h-4zM52 240h4v4h-4zM60 240h4v4h-4zM68 240h4v4h-4zM76 240h4v4h-4zM84 240h4v4h-4zM108 240h4v44h-4zM436 240h4v8h-4zM496 240h4v8h-4zM556 240h4v4h-4zM564 240h4v4h-4zM700 240h4v8h-4zM756 240h4v4h-4zM32 244h4v4h-4zM40 244h4v4h-4zM48 244h4v4h-4zM56 244h4v4h-4zM64 244h4v4h-4zM72 244h4v4h-4zM80 244h4v4h-4zM88 244h4v4h-4zM96 244h4v4h-4zM112 244h4v4h-4zM160 244h4v4h-4zM184 244h4v4h-4zM192 244h4v4h-4zM216 244h4v4h-4zM500 244h4v4h-4zM560 244h4v4h-4zM568 244h8v4h-8zM696 244h4v4h-4zM752 244h4v4h-4zM44 248h4v16h-4zM52 248h4v4h-4zM60 248h4v4h-4zM68 248h4v4h-4zM76 248h4v4h-4zM84 248h4v4h-4zM116 248h4v64h-4zM196 248h4v12h-4zM440 248h8v4h-8zM692 248h4v8h-4zM748 248h4v4h-4zM40 252h4v4h-4zM48 252h4v4h-4zM56 252h4v4h-4zM64 252h4v4h-4zM72 252h4v4h-4zM80 252h4v4h-4zM88 252h4v4h-4zM96 252h4v4h-4zM104 252h4v4h-4zM112 252h4v4h-4zM160 252h4v4h-4zM168 252h4v4h-4zM176 252h4v4h-4zM184 252h4v4h-4zM192 252h4v4h-4zM200 252h4v4h-4zM448 252h8v4h-8zM580 252h4v4h-4zM688 252h4v4h-4zM744 252h4v4h-4zM52 256h4v4h-4zM60 256h4v4h-4zM68 256h4v4h-4zM76 256h4v4h-4zM84 256h4v4h-4zM92 256h4v20h-4zM188 256h4v12h-4zM684 256h4v8h-4zM740 256h4v4h-4zM48 260h4v4h-4zM56 260h4v4h-4zM64 260h4v4h-4zM72 260h4v4h-4zM80 260h4v4h-4zM88 260h4v4h-4zM96 260h4v4h-4zM104 260h4v4h-4zM112 260h4v4h-4zM120 260h4v4h-4zM160 260h4v4h-4zM176 260h4v4h-4zM184 260h4v4h-4zM192 260h4v4h-4zM456 260h4v4h-4zM680 260h4v4h-4zM736 260h4v4h-4zM52 264h4v8h-4zM60 264h4v4h-4zM68 264h4v4h-4zM76 264h4v4h-4zM84 264h4v4h-4zM100 264h4v20h-4zM124 264h4v20h-4zM180 264h4v4h-4zM196 264h4v12h-4zM668 264h12v4h-12zM732 264h4v4h-4zM56 268h4v4h-4zM64 268h4v4h-4zM72 268h4v4h-4zM80 268h4v4h-4zM88 268h4v4h-4zM96 268h4v4h-4zM104 268h4v4h-4zM112 268h4v36h-4zM120 268h4v4h-4zM160 268h4v4h-4zM184 268h4v4h-4zM192 268h4v4h-4zM664 268h8v4h-8zM728 268h4v4h-4zM60 272h4v8h-4zM68 272h4v4h-4zM76 272h4v4h-4zM84 272h4v4h-4zM180 272h4v4h-4zM464 272h8v8h-8zM644 272h4v8h-4zM652 272h4v4h-4zM716 272h4v8h-4zM56 276h4v4h-4zM64 276h4v4h-4zM72 276h4v4h-4zM80 276h4v4h-4zM88 276h4v4h-4zM96 276h4v4h-4zM104 276h4v4h-4zM120 276h4v4h-4zM128 276h8v4h-8zM192 276h4v4h-4zM632 276h12v4h-12zM648 276h4v4h-4zM712 276h4v4h-4zM68 280h4v8h-4zM76 280h4v4h-4zM84 280h4v4h-4zM92 280h4v4h-4zM132 280h4v4h-4zM140 280h4v36h-4zM180 280h4v4h-4zM468 280h4v4h-4zM528 280h8v8h-8zM584 280h24v4h-24zM612 280h4v4h-4zM700 280h4v8h-4zM708 280h4v4h-4zM64 284h4v4h-4zM72 284h4v4h-4zM80 284h4v4h-4zM88 284h4v4h-4zM96 284h4v20h-4zM104 284h4v4h-4zM120 284h4v4h-4zM128 284h4v4h-4zM136 284h4v4h-4zM176 284h4v4h-4zM200 284h4v4h-4zM464 284h4v4h-4zM696 284h4v4h-4zM76 288h4v8h-4zM84 288h4v4h-4zM92 288h4v16h-4zM100 288h4v16h-4zM108 288h4v12h-4zM124 288h4v20h-4zM132 288h4v28h-4zM144 288h8v4h-8zM156 288h4v36h-4zM476 288h4v8h-4zM684 288h4v8h-4zM72 292h4v4h-4zM80 292h4v4h-4zM88 292h4v12h-4zM104 292h4v4h-4zM120 292h4v4h-4zM128 292h4v12h-4zM136 292h4v4h-4zM144 292h4v4h-4zM152 292h4v4h-4zM160 292h8v4h-8zM480 292h8v4h-8zM680 292h4v4h-4zM84 296h4v8h-4zM148 296h4v20h-4zM164 296h4v36h-4zM172 296h4v36h-4zM180 296h4v4h-4zM188 296h4v48h-4zM540 296h4v8h-4zM660 296h4v8h-4zM668 296h4v4h-4zM80 300h4v4h-4zM104 300h4v8h-4zM120 300h4v4h-4zM136 300h4v12h-4zM144 300h4v4h-4zM152 300h4v20h-4zM160 300h4v12h-4zM168 300h4v4h-4zM176 300h4v4h-4zM184 300h4v4h-4zM192 300h8v4h-8zM648 300h12v4h-12zM108 304h4v8h-4zM180 304h4v4h-4zM196 304h4v4h-4zM204 304h4v4h-4zM212 304h4v12h-4zM112 308h4v4h-4zM120 308h4v4h-4zM128 308h4v4h-4zM144 308h4v4h-4zM168 308h4v4h-4zM176 308h4v12h-4zM184 308h4v12h-4zM192 308h4v4h-4zM200 308h4v4h-4zM208 308h4v4h-4zM544 308h8v4h-8zM124 312h4v4h-4zM180 312h4v28h-4zM196 312h4v32h-4zM204 312h4v20h-4zM220 312h4v4h-4zM228 312h4v4h-4zM548 312h4v12h-4zM120 316h4v4h-4zM128 316h4v4h-4zM136 316h4v4h-4zM144 316h4v4h-4zM160 316h4v12h-4zM168 316h4v4h-4zM192 316h4v12h-4zM200 316h4v4h-4zM208 316h4v20h-4zM216 316h4v20h-4zM224 316h4v4h-4zM544 316h4v4h-4zM132 320h4v8h-4zM140 320h4v4h-4zM148 320h4v4h-4zM212 320h4v24h-4zM220 320h4v24h-4zM228 320h4v20h-4zM236 320h4v4h-4zM244 320h4v4h-4zM252 320h4v4h-4zM492 320h4v4h-4zM136 324h4v4h-4zM144 324h4v4h-4zM152 324h4v4h-4zM168 324h4v16h-4zM176 324h4v12h-4zM184 324h4v4h-4zM200 324h4v4h-4zM224 324h4v4h-4zM232 324h4v4h-4zM240 324h4v4h-4zM248 324h4v4h-4zM544 324h4v4h-4zM148 328h4v8h-4zM156 328h4v8h-4zM236 328h4v4h-4zM244 328h4v4h-4zM252 328h4v4h-4zM260 328h4v20h-4zM152 332h4v4h-4zM160 332h4v4h-4zM184 332h4v12h-4zM192 332h4v4h-4zM200 332h4v4h-4zM224 332h4v4h-4zM232 332h4v4h-4zM240 332h4v4h-4zM248 332h4v4h-4zM256 332h4v4h-4zM264 332h8v4h-8zM544 332h4v4h-4zM172 336h4v4h-4zM204 336h4v8h-4zM236 336h4v12h-4zM244 336h4v12h-4zM252 336h4v12h-4zM268 336h4v12h-4zM276 336h4v12h-4zM492 336h4v12h-4zM176 340h4v4h-4zM192 340h4v4h-4zM200 340h4v4h-4zM208 340h4v4h-4zM216 340h4v4h-4zM224 340h4v4h-4zM232 340h4v4h-4zM240 340h4v4h-4zM248 340h4v4h-4zM256 340h4v4h-4zM264 340h4v4h-4zM272 340h4v4h-4zM280 340h4v4h-4zM488 340h4v4h-4zM228 344h4v4h-4zM284 344h4v4h-4zM540 344h4v12h-4zM264 348h4v4h-4zM272 348h4v4h-4zM280 348h4v4h-4zM488 348h4v4h-4zM536 356h4v4h-4z" fill="#000000"/></svg>