<svg width="74" height="74" viewBox="0 0 74 74" fill="none" xmlns="http://www.w3.org/2000/svg">
<path d="M13.3274 45.2904C13.6745 44.907 14.2762 44.904 14.6271 45.284L15.7649 46.5168L19.044 49.7959C19.0809 49.8328 19.1145 49.8716 19.1447 49.911C19.2542 50.0543 19.3204 50.2129 19.3484 50.3741C19.433 50.8628 19.1667 51.3776 18.6921 51.5707C18.6421 51.591 18.5895 51.6078 18.5351 51.6206C18.4809 51.6334 18.4242 51.6419 18.366 51.6464C18.3368 51.6486 18.3067 51.6496 18.2766 51.6496H13.3L13.1889 51.644C13.1161 51.6366 13.0449 51.6224 12.9771 51.6013C12.8924 51.575 12.8123 51.5377 12.7379 51.4926C12.6023 51.4364 12.4737 51.364 12.3587 51.2711L10.5162 49.783C10.1231 49.4653 10.078 48.8823 10.4172 48.5075L13.3274 45.2904Z" fill="#001627"/>
<path d="M13.9998 35.1537C14.3423 34.7751 14.9347 34.7661 15.2882 35.1344L16.5026 36.3994L29.899 49.7959C30.4278 50.325 30.256 51.1421 29.7041 51.4862C29.6094 51.5452 29.5049 51.5935 29.3893 51.6206C29.3623 51.627 29.3344 51.6324 29.3063 51.6367C29.25 51.6454 29.1911 51.6496 29.1308 51.6496H23.0687L16.7272 45.3081L16.7248 45.3468L11.0445 39.6664C10.7129 39.3347 10.7 38.8015 11.0147 38.4537L13.9998 35.1537Z" fill="#001627"/>
<path d="M14.1101 24.3542C14.4543 23.983 15.0399 23.9777 15.3905 24.343L17.3851 26.4206L17.3835 26.4254L40.754 49.7959C41.4375 50.4799 40.9528 51.6494 39.9858 51.6496H34.3731C34.2161 51.6496 34.0631 51.6137 33.923 51.5498V51.6496L23.3868 41.1135C23.3842 41.1109 23.3814 41.1073 23.3788 41.1046L12.5318 30.2577C12.4342 30.16 12.357 30.0454 12.3031 29.9211L11.162 28.78C10.8276 28.4454 10.8171 27.9062 11.1387 27.5592L14.1101 24.3542Z" fill="#001627"/>
<path fill-rule="evenodd" clip-rule="evenodd" d="M46.3136 36.2682C46.3136 35.3008 47.4833 34.8159 48.1674 35.5L58.3878 45.7204C58.4386 45.7712 58.4905 45.8209 58.5424 45.8702L59.1979 46.3461C59.7998 46.7839 60.5248 47.0201 61.2691 47.0201H63.2734C63.7123 47.0201 64.0297 47.4406 63.9087 47.8624L63.1776 50.4079C62.9865 51.0732 62.408 51.5454 61.7297 51.6102V51.6496H47.3991C46.7996 51.6495 46.3137 51.1636 46.3136 50.5641V36.2682ZM51.5237 44.7026C50.5651 44.7026 49.7868 45.4809 49.7867 46.4395C49.7869 47.3981 50.5651 48.1764 51.5237 48.1765C52.4822 48.1763 53.2606 47.398 53.2607 46.4395C53.2606 45.481 52.4822 44.7027 51.5237 44.7026Z" fill="#001627"/>
<path d="M22.9117 22.246C23.2576 21.8827 23.8366 21.8818 24.184 22.2436L26.1875 24.3301L26.1763 24.3639L44.4599 42.6475C44.6634 42.8511 44.778 43.1279 44.778 43.4158V49.0285C44.7776 49.9953 43.609 50.4792 42.9251 49.7959L23.3868 30.2577C23.336 30.2068 23.2901 30.1515 23.2507 30.0926C23.2471 30.0871 23.2438 30.0812 23.2403 30.0757L19.8622 26.6976C19.5245 26.3599 19.5178 25.8148 19.8469 25.4687L22.9117 22.246Z" fill="#001627"/>
<path d="M34.3554 22.7968C34.7012 22.4333 35.281 22.4317 35.6285 22.7936L37.6312 24.8801L37.6103 24.9437L44.4599 31.7933C44.6634 31.9969 44.778 32.2729 44.778 32.5607V38.1735C44.7778 39.1405 43.6091 39.6244 42.9251 38.9409L34.2418 30.2577C34.1614 30.1772 34.0956 30.0848 34.0445 29.9855L31.3066 27.2476C30.9689 26.9099 30.9622 26.3648 31.2913 26.0187L34.3554 22.7968Z" fill="#001627"/>
</svg>
