<svg width="152" height="44" viewBox="0 0 152 44" fill="none" xmlns="http://www.w3.org/2000/svg">
<path d="M32.1016 6.98535L22.0617 17.0252C20.8017 18.2852 21.6941 20.4395 23.4759 20.4395H33V25.082H14.0059L3.2832 35.8047L0 32.5215L28.8184 3.70312L32.1016 6.98535Z" fill="#001627"/>
<path d="M10.4462 3.02936L15.0889 3.02936V10.0294L10.4462 14.5294L10.4462 3.02936Z" fill="#E45A10"/>
<path d="M52.802 8.52048H53.5538C56.0598 8.52048 58.0145 7.41783 58.4656 4.86169L59.3177 0.200482H63.628L62.1244 8.72097H70.7953V13.2318H62.9765V28.9195H71.7475V33.5306L63.8285 33.5807C60.27 33.5306 57.6136 31.5759 57.6136 27.4159V13.2318H52.802V8.52048Z" fill="#001627"/>
<path d="M76.2208 33.0294L74.1659 8.82121H79.1779L81.0825 30.2227L88.801 8.82121H95.7678L100.629 30.373L107.997 8.82121H113.31L105.14 33.0294H96.3191L92.0088 13.8333L85.1422 33.0294H76.2208Z" fill="#001627"/>
<path d="M121.692 6.06458L116.58 4.6612V0H121.692V6.06458ZM116.58 8.82121H119.286C120.84 8.82121 121.843 9.82362 121.843 11.3272V33.0294H116.58V8.82121Z" fill="#001627"/>
<path d="M126.011 37.9412L129.469 34.4829C130.672 36.0868 132.978 38.8434 137.789 38.8434C141.799 38.8434 146.51 37.5402 146.51 31.2251V26.5639C145.057 30.5234 141.398 32.2275 138.09 32.2275C130.822 32.2275 125.86 27.1152 125.86 20.399C125.86 13.6328 130.822 8.37012 137.789 8.37012C141.398 8.37012 144.154 9.72337 146.51 14.2342V8.92145H151.823V31.3754C151.823 40.748 144.906 43.7552 137.739 43.7552C131.875 43.7552 127.665 40.9986 126.011 37.9412ZM138.892 27.5663C142.851 27.5663 146.51 25.2106 146.51 21.5518V19.0959C146.51 15.4371 142.901 12.9812 138.892 12.9812C134.531 12.9812 131.273 15.8882 131.273 20.2988C131.273 24.7094 134.632 27.5663 138.892 27.5663Z" fill="#001627"/>
</svg>
